G04 #@! TF.GenerationSoftware,KiCad,Pcbnew,(5.0.0)*
G04 #@! TF.CreationDate,2018-09-15T10:53:15+02:00*
G04 #@! TF.ProjectId,cyclops,6379636C6F70732E6B696361645F7063,rev?*
G04 #@! TF.SameCoordinates,Original*
G04 #@! TF.FileFunction,Soldermask,Top*
G04 #@! TF.FilePolarity,Negative*
%FSLAX46Y46*%
G04 Gerber Fmt 4.6, Leading zero omitted, Abs format (unit mm)*
G04 Created by KiCad (PCBNEW (5.0.0)) date 09/15/18 10:53:15*
%MOMM*%
%LPD*%
G01*
G04 APERTURE LIST*
%ADD10O,1.900000X3.000000*%
%ADD11O,7.400000X4.800000*%
%ADD12O,6.400000X4.800000*%
%ADD13C,2.650000*%
%ADD14R,2.100000X2.100000*%
%ADD15O,2.100000X2.100000*%
G04 APERTURE END LIST*
D10*
G04 #@! TO.C,J1*
X361790000Y-100330000D03*
X354490000Y-100330000D03*
X361790000Y-105130000D03*
X354490000Y-105130000D03*
G04 #@! TD*
G04 #@! TO.C,J1*
X90238600Y-100330000D03*
X82938600Y-100330000D03*
X90238600Y-105130000D03*
X82938600Y-105130000D03*
G04 #@! TD*
D11*
G04 #@! TO.C,MH1*
X299200000Y-183200000D03*
G04 #@! TD*
G04 #@! TO.C,MH1*
X197200000Y-145200000D03*
G04 #@! TD*
D12*
G04 #@! TO.C,MH1*
X286800000Y-126200000D03*
G04 #@! TD*
G04 #@! TO.C,MH1*
X91800000Y-126200000D03*
G04 #@! TD*
G04 #@! TO.C,MH1*
X92200000Y-183400000D03*
G04 #@! TD*
G04 #@! TO.C,MH1*
X363000000Y-116600000D03*
G04 #@! TD*
G04 #@! TO.C,MH1*
X363000000Y-183400000D03*
G04 #@! TD*
D13*
G04 #@! TO.C,K61*
X348418573Y-138181001D03*
X347918573Y-133181001D03*
G04 #@! TD*
G04 #@! TO.C,K57*
X213040600Y-178786400D03*
X208040600Y-179286400D03*
G04 #@! TD*
G04 #@! TO.C,K1*
X82052800Y-111611800D03*
X77052800Y-111111800D03*
G04 #@! TD*
G04 #@! TO.C,K2*
X103490400Y-102611100D03*
X98490400Y-103111100D03*
G04 #@! TD*
G04 #@! TO.C,K3*
X122540400Y-102611800D03*
X117540400Y-103111800D03*
G04 #@! TD*
G04 #@! TO.C,K4*
X141577700Y-102612500D03*
X136577700Y-103112500D03*
G04 #@! TD*
G04 #@! TO.C,K5*
X160640400Y-102599100D03*
X155640400Y-103099100D03*
G04 #@! TD*
G04 #@! TO.C,K6*
X179690400Y-102599100D03*
X174690400Y-103099100D03*
G04 #@! TD*
G04 #@! TO.C,K7*
X198740400Y-102599100D03*
X193740400Y-103099100D03*
G04 #@! TD*
G04 #@! TO.C,K8*
X217790400Y-102599100D03*
X212790400Y-103099100D03*
G04 #@! TD*
G04 #@! TO.C,K9*
X236853100Y-102599100D03*
X231853100Y-103099100D03*
G04 #@! TD*
G04 #@! TO.C,K10*
X255890400Y-102599100D03*
X250890400Y-103099100D03*
G04 #@! TD*
G04 #@! TO.C,K11*
X274940400Y-102599100D03*
X269940400Y-103099100D03*
G04 #@! TD*
G04 #@! TO.C,K12*
X293990400Y-102599100D03*
X288990400Y-103099100D03*
G04 #@! TD*
G04 #@! TO.C,K13*
X313040400Y-102599100D03*
X308040400Y-103099100D03*
G04 #@! TD*
G04 #@! TO.C,K14*
X339253200Y-102599100D03*
X334253200Y-103099100D03*
G04 #@! TD*
G04 #@! TO.C,K15*
X86815300Y-121661800D03*
X81815300Y-122161800D03*
G04 #@! TD*
G04 #@! TO.C,K16*
X113015400Y-121661800D03*
X108015400Y-122161800D03*
G04 #@! TD*
G04 #@! TO.C,K17*
X132065400Y-121661800D03*
X127065400Y-122161800D03*
G04 #@! TD*
G04 #@! TO.C,K18*
X151128100Y-121661800D03*
X146128100Y-122161800D03*
G04 #@! TD*
G04 #@! TO.C,K19*
X170127300Y-121661800D03*
X165127300Y-122161800D03*
G04 #@! TD*
G04 #@! TO.C,K20*
X189190000Y-121661800D03*
X184190000Y-122161800D03*
G04 #@! TD*
G04 #@! TO.C,K21*
X208227300Y-121661800D03*
X203227300Y-122161800D03*
G04 #@! TD*
G04 #@! TO.C,K22*
X227277300Y-121661800D03*
X222277300Y-122161800D03*
G04 #@! TD*
G04 #@! TO.C,K23*
X246327300Y-121661800D03*
X241327300Y-122161800D03*
G04 #@! TD*
G04 #@! TO.C,K24*
X265377300Y-121661800D03*
X260377300Y-122161800D03*
G04 #@! TD*
G04 #@! TO.C,K25*
X284427300Y-121661800D03*
X279427300Y-122161800D03*
G04 #@! TD*
G04 #@! TO.C,K26*
X303477300Y-121661800D03*
X298477300Y-122161800D03*
G04 #@! TD*
G04 #@! TO.C,K27*
X322527300Y-121661800D03*
X317527300Y-122161800D03*
G04 #@! TD*
G04 #@! TO.C,K28*
X89196420Y-140712120D03*
X84196420Y-141212120D03*
G04 #@! TD*
G04 #@! TO.C,K29*
X117765200Y-140711800D03*
X112765200Y-141211800D03*
G04 #@! TD*
G04 #@! TO.C,K30*
X136827900Y-140711800D03*
X131827900Y-141211800D03*
G04 #@! TD*
G04 #@! TO.C,K31*
X155877900Y-140711800D03*
X150877900Y-141211800D03*
G04 #@! TD*
G04 #@! TO.C,K32*
X174927900Y-140711800D03*
X169927900Y-141211800D03*
G04 #@! TD*
G04 #@! TO.C,K33*
X193977900Y-140737200D03*
X188977900Y-141237200D03*
G04 #@! TD*
G04 #@! TO.C,K34*
X213040600Y-140737200D03*
X208040600Y-141237200D03*
G04 #@! TD*
G04 #@! TO.C,K35*
X232103300Y-140737200D03*
X227103300Y-141237200D03*
G04 #@! TD*
G04 #@! TO.C,K36*
X251166000Y-140737200D03*
X246166000Y-141237200D03*
G04 #@! TD*
G04 #@! TO.C,K37*
X270216000Y-140737200D03*
X265216000Y-141237200D03*
G04 #@! TD*
G04 #@! TO.C,K38*
X289266000Y-140737200D03*
X284266000Y-141237200D03*
G04 #@! TD*
G04 #@! TO.C,K39*
X308316000Y-140737200D03*
X303316000Y-141237200D03*
G04 #@! TD*
G04 #@! TO.C,K40*
X327315200Y-140737200D03*
X322315200Y-141237200D03*
G04 #@! TD*
G04 #@! TO.C,K41*
X84434300Y-159771800D03*
X79434300Y-160271800D03*
G04 #@! TD*
G04 #@! TO.C,K42*
X108250200Y-159771800D03*
X103250200Y-160271800D03*
G04 #@! TD*
G04 #@! TO.C,K43*
X127302900Y-159772100D03*
X122302900Y-160272100D03*
G04 #@! TD*
G04 #@! TO.C,K44*
X146352900Y-159772100D03*
X141352900Y-160272100D03*
G04 #@! TD*
G04 #@! TO.C,K45*
X165377500Y-159773200D03*
X160377500Y-160273200D03*
G04 #@! TD*
G04 #@! TO.C,K46*
X184440200Y-159761800D03*
X179440200Y-160261800D03*
G04 #@! TD*
G04 #@! TO.C,K47*
X203502900Y-159749100D03*
X198502900Y-160249100D03*
G04 #@! TD*
G04 #@! TO.C,K48*
X222552900Y-159749100D03*
X217552900Y-160249100D03*
G04 #@! TD*
G04 #@! TO.C,K49*
X241653700Y-159787200D03*
X236653700Y-160287200D03*
G04 #@! TD*
G04 #@! TO.C,K50*
X260652900Y-159787200D03*
X255652900Y-160287200D03*
G04 #@! TD*
G04 #@! TO.C,K51*
X279715600Y-159787200D03*
X274715600Y-160287200D03*
G04 #@! TD*
G04 #@! TO.C,K52*
X298752900Y-159787200D03*
X293752900Y-160287200D03*
G04 #@! TD*
G04 #@! TO.C,K54*
X84434800Y-178837200D03*
X79434800Y-179337200D03*
G04 #@! TD*
G04 #@! TO.C,K55*
X110615100Y-178786400D03*
X105615100Y-179286400D03*
G04 #@! TD*
G04 #@! TO.C,K56*
X136827900Y-178786400D03*
X131827900Y-179286400D03*
G04 #@! TD*
G04 #@! TO.C,K58*
X289266000Y-178786400D03*
X284266000Y-179286400D03*
G04 #@! TD*
G04 #@! TO.C,K59*
X315453400Y-178786400D03*
X310453400Y-179286400D03*
G04 #@! TD*
G04 #@! TO.C,K53*
X317800000Y-159787200D03*
X312800000Y-160287200D03*
G04 #@! TD*
G04 #@! TO.C,K60*
X336885500Y-178836400D03*
X331885500Y-179336400D03*
G04 #@! TD*
G04 #@! TO.C,K63*
X374950000Y-121650000D03*
X369950000Y-122150000D03*
G04 #@! TD*
G04 #@! TO.C,K64*
X336850000Y-159800000D03*
X331850000Y-160300000D03*
G04 #@! TD*
G04 #@! TO.C,K62*
X374950000Y-102600000D03*
X369950000Y-103100000D03*
G04 #@! TD*
G04 #@! TO.C,K65*
X355900000Y-159750000D03*
X350900000Y-160250000D03*
G04 #@! TD*
G04 #@! TO.C,K66*
X355900000Y-178850000D03*
X350900000Y-179350000D03*
G04 #@! TD*
G04 #@! TO.C,K67*
X374950000Y-178850000D03*
X369950000Y-179350000D03*
G04 #@! TD*
G04 #@! TO.C,K64-2*
X327270000Y-159800000D03*
X322270000Y-160300000D03*
G04 #@! TD*
D14*
G04 #@! TO.C,J2*
X248340000Y-181400000D03*
D15*
X248340000Y-183940000D03*
X245800000Y-181400000D03*
X245800000Y-183940000D03*
X243260000Y-181400000D03*
X243260000Y-183940000D03*
G04 #@! TD*
M02*
