G04 #@! TF.GenerationSoftware,KiCad,Pcbnew,(5.0.0)*
G04 #@! TF.CreationDate,2018-09-15T10:53:15+02:00*
G04 #@! TF.ProjectId,cyclops,6379636C6F70732E6B696361645F7063,rev?*
G04 #@! TF.SameCoordinates,Original*
G04 #@! TF.FileFunction,Legend,Bot*
G04 #@! TF.FilePolarity,Positive*
%FSLAX46Y46*%
G04 Gerber Fmt 4.6, Leading zero omitted, Abs format (unit mm)*
G04 Created by KiCad (PCBNEW (5.0.0)) date 09/15/18 10:53:15*
%MOMM*%
%LPD*%
G01*
G04 APERTURE LIST*
%ADD10C,0.120000*%
%ADD11C,0.150000*%
G04 APERTURE END LIST*
D10*
G04 #@! TO.C,R1*
X91050000Y-114525000D02*
X91050000Y-113325000D01*
X89290000Y-113325000D02*
X89290000Y-114525000D01*
G04 #@! TO.C,R2*
X88830000Y-114525000D02*
X88830000Y-113325000D01*
X87070000Y-113325000D02*
X87070000Y-114525000D01*
G04 #@! TO.C,R3*
X191300000Y-189068000D02*
X191300000Y-187868000D01*
X189540000Y-187868000D02*
X189540000Y-189068000D01*
G04 #@! TO.C,R4*
X175904000Y-166706000D02*
X175904000Y-167906000D01*
X177664000Y-167906000D02*
X177664000Y-166706000D01*
G04 #@! TO.C,SW1*
X97573700Y-134103600D02*
X97573700Y-133653600D01*
X97573700Y-133653600D02*
X103873700Y-133653600D01*
X103873700Y-133653600D02*
X103873700Y-134053600D01*
X97573700Y-135403600D02*
X97573700Y-138103600D01*
X103873700Y-138103600D02*
X103873700Y-135403600D01*
X97573700Y-139853600D02*
X103873700Y-139853600D01*
X103873700Y-139853600D02*
X103873700Y-139403600D01*
X97573700Y-139403600D02*
X97573700Y-139853600D01*
G04 #@! TO.C,X1*
X163326657Y-179092330D02*
X160144676Y-182274311D01*
X160144676Y-182274311D02*
X156326299Y-178455934D01*
D11*
G04 #@! TO.C,U1*
X177895000Y-183991000D02*
X177320000Y-183991000D01*
X177895000Y-173641000D02*
X177220000Y-173641000D01*
X167545000Y-173641000D02*
X168220000Y-173641000D01*
X167545000Y-183991000D02*
X168220000Y-183991000D01*
X177895000Y-183991000D02*
X177895000Y-183316000D01*
X167545000Y-183991000D02*
X167545000Y-183316000D01*
X167545000Y-173641000D02*
X167545000Y-174316000D01*
X177895000Y-173641000D02*
X177895000Y-174316000D01*
X177320000Y-183991000D02*
X177320000Y-185266000D01*
D10*
G04 #@! TO.C,C1*
X162866000Y-188138748D02*
X162866000Y-188661252D01*
X164286000Y-188138748D02*
X164286000Y-188661252D01*
G04 #@! TO.C,C2*
X182066000Y-188206748D02*
X182066000Y-188729252D01*
X180646000Y-188206748D02*
X180646000Y-188729252D01*
G04 #@! TO.C,C3*
X165914000Y-167921252D02*
X165914000Y-167398748D01*
X167334000Y-167921252D02*
X167334000Y-167398748D01*
G04 #@! TO.C,C4*
X167184000Y-188138748D02*
X167184000Y-188661252D01*
X168604000Y-188138748D02*
X168604000Y-188661252D01*
G04 #@! TO.C,C5*
X175312000Y-187952748D02*
X175312000Y-188475252D01*
X176732000Y-187952748D02*
X176732000Y-188475252D01*
G04 #@! TO.C,C6*
X159793252Y-173534000D02*
X159270748Y-173534000D01*
X159793252Y-174954000D02*
X159270748Y-174954000D01*
G04 #@! TO.C,C7*
X160003748Y-182932000D02*
X160526252Y-182932000D01*
X160003748Y-184352000D02*
X160526252Y-184352000D01*
G04 #@! TO.C,C8*
X170994000Y-188738252D02*
X170994000Y-188215748D01*
X172414000Y-188738252D02*
X172414000Y-188215748D01*
G04 #@! TO.C,D1*
X73410000Y-106225000D02*
X73410000Y-109085000D01*
X73410000Y-109085000D02*
X71490000Y-109085000D01*
X71490000Y-109085000D02*
X71490000Y-106225000D01*
G04 #@! TO.C,D2*
X108910000Y-106188000D02*
X108910000Y-109048000D01*
X108910000Y-109048000D02*
X106990000Y-109048000D01*
X106990000Y-109048000D02*
X106990000Y-106188000D01*
G04 #@! TO.C,D3*
X126040000Y-109048000D02*
X126040000Y-106188000D01*
X127960000Y-109048000D02*
X126040000Y-109048000D01*
X127960000Y-106188000D02*
X127960000Y-109048000D01*
G04 #@! TO.C,D4*
X147010000Y-106188000D02*
X147010000Y-109048000D01*
X147010000Y-109048000D02*
X145090000Y-109048000D01*
X145090000Y-109048000D02*
X145090000Y-106188000D01*
G04 #@! TO.C,D5*
X164140000Y-108971800D02*
X164140000Y-106111800D01*
X166060000Y-108971800D02*
X164140000Y-108971800D01*
X166060000Y-106111800D02*
X166060000Y-108971800D01*
G04 #@! TO.C,D6*
X185110000Y-106124500D02*
X185110000Y-108984500D01*
X185110000Y-108984500D02*
X183190000Y-108984500D01*
X183190000Y-108984500D02*
X183190000Y-106124500D01*
G04 #@! TO.C,D7*
X202240000Y-108971800D02*
X202240000Y-106111800D01*
X204160000Y-108971800D02*
X202240000Y-108971800D01*
X204160000Y-106111800D02*
X204160000Y-108971800D01*
G04 #@! TO.C,D8*
X223210000Y-106111800D02*
X223210000Y-108971800D01*
X223210000Y-108971800D02*
X221290000Y-108971800D01*
X221290000Y-108971800D02*
X221290000Y-106111800D01*
G04 #@! TO.C,D9*
X240340000Y-108971800D02*
X240340000Y-106111800D01*
X242260000Y-108971800D02*
X240340000Y-108971800D01*
X242260000Y-106111800D02*
X242260000Y-108971800D01*
G04 #@! TO.C,D10*
X261310000Y-106086400D02*
X261310000Y-108946400D01*
X261310000Y-108946400D02*
X259390000Y-108946400D01*
X259390000Y-108946400D02*
X259390000Y-106086400D01*
G04 #@! TO.C,D11*
X278440000Y-108933700D02*
X278440000Y-106073700D01*
X280360000Y-108933700D02*
X278440000Y-108933700D01*
X280360000Y-106073700D02*
X280360000Y-108933700D01*
G04 #@! TO.C,D12*
X299410000Y-106073700D02*
X299410000Y-108933700D01*
X299410000Y-108933700D02*
X297490000Y-108933700D01*
X297490000Y-108933700D02*
X297490000Y-106073700D01*
G04 #@! TO.C,D13*
X318310000Y-106025000D02*
X318310000Y-108885000D01*
X318310000Y-108885000D02*
X316390000Y-108885000D01*
X316390000Y-108885000D02*
X316390000Y-106025000D01*
G04 #@! TO.C,D14*
X342702000Y-108794000D02*
X342702000Y-105934000D01*
X344622000Y-108794000D02*
X342702000Y-108794000D01*
X344622000Y-105934000D02*
X344622000Y-108794000D01*
G04 #@! TO.C,D15*
X76357600Y-128021800D02*
X76357600Y-125161800D01*
X78277600Y-128021800D02*
X76357600Y-128021800D01*
X78277600Y-125161800D02*
X78277600Y-128021800D01*
G04 #@! TO.C,D16*
X118562000Y-125174500D02*
X118562000Y-128034500D01*
X118562000Y-128034500D02*
X116642000Y-128034500D01*
X116642000Y-128034500D02*
X116642000Y-125174500D01*
G04 #@! TO.C,D17*
X137612000Y-125161800D02*
X137612000Y-128021800D01*
X137612000Y-128021800D02*
X135692000Y-128021800D01*
X135692000Y-128021800D02*
X135692000Y-125161800D01*
G04 #@! TO.C,D18*
X154742000Y-128021800D02*
X154742000Y-125161800D01*
X156662000Y-128021800D02*
X154742000Y-128021800D01*
X156662000Y-125161800D02*
X156662000Y-128021800D01*
G04 #@! TO.C,D19*
X175458000Y-125149100D02*
X175458000Y-128009100D01*
X175458000Y-128009100D02*
X173538000Y-128009100D01*
X173538000Y-128009100D02*
X173538000Y-125149100D01*
G04 #@! TO.C,D20*
X194508000Y-125238000D02*
X194508000Y-128098000D01*
X194508000Y-128098000D02*
X192588000Y-128098000D01*
X192588000Y-128098000D02*
X192588000Y-125238000D01*
G04 #@! TO.C,D21*
X213558000Y-125174500D02*
X213558000Y-128034500D01*
X213558000Y-128034500D02*
X211638000Y-128034500D01*
X211638000Y-128034500D02*
X211638000Y-125174500D01*
G04 #@! TO.C,D22*
X230688000Y-127996400D02*
X230688000Y-125136400D01*
X232608000Y-127996400D02*
X230688000Y-127996400D01*
X232608000Y-125136400D02*
X232608000Y-127996400D01*
G04 #@! TO.C,D23*
X251658000Y-125161800D02*
X251658000Y-128021800D01*
X251658000Y-128021800D02*
X249738000Y-128021800D01*
X249738000Y-128021800D02*
X249738000Y-125161800D01*
G04 #@! TO.C,D24*
X268788000Y-128098000D02*
X268788000Y-125238000D01*
X270708000Y-128098000D02*
X268788000Y-128098000D01*
X270708000Y-125238000D02*
X270708000Y-128098000D01*
G04 #@! TO.C,D25*
X292552000Y-125238000D02*
X292552000Y-128098000D01*
X292552000Y-128098000D02*
X290632000Y-128098000D01*
X290632000Y-128098000D02*
X290632000Y-125238000D01*
G04 #@! TO.C,D26*
X306888000Y-128021800D02*
X306888000Y-125161800D01*
X308808000Y-128021800D02*
X306888000Y-128021800D01*
X308808000Y-125161800D02*
X308808000Y-128021800D01*
G04 #@! TO.C,D27*
X325938000Y-128009100D02*
X325938000Y-125149100D01*
X327858000Y-128009100D02*
X325938000Y-128009100D01*
X327858000Y-125149100D02*
X327858000Y-128009100D01*
G04 #@! TO.C,D28*
X92766000Y-147148000D02*
X92766000Y-144288000D01*
X94686000Y-147148000D02*
X92766000Y-147148000D01*
X94686000Y-144288000D02*
X94686000Y-147148000D01*
G04 #@! TO.C,D29*
X121214000Y-147148000D02*
X121214000Y-144288000D01*
X123134000Y-147148000D02*
X121214000Y-147148000D01*
X123134000Y-144288000D02*
X123134000Y-147148000D01*
G04 #@! TO.C,D30*
X140264000Y-147148000D02*
X140264000Y-144288000D01*
X142184000Y-147148000D02*
X140264000Y-147148000D01*
X142184000Y-144288000D02*
X142184000Y-147148000D01*
G04 #@! TO.C,D31*
X161234000Y-144288000D02*
X161234000Y-147148000D01*
X161234000Y-147148000D02*
X159314000Y-147148000D01*
X159314000Y-147148000D02*
X159314000Y-144288000D01*
G04 #@! TO.C,D32*
X180284000Y-144288000D02*
X180284000Y-147148000D01*
X180284000Y-147148000D02*
X178364000Y-147148000D01*
X178364000Y-147148000D02*
X178364000Y-144288000D01*
G04 #@! TO.C,D33*
X201478000Y-146640000D02*
X201478000Y-143780000D01*
X203398000Y-146640000D02*
X201478000Y-146640000D01*
X203398000Y-143780000D02*
X203398000Y-146640000D01*
G04 #@! TO.C,D34*
X216464000Y-146640000D02*
X216464000Y-143780000D01*
X218384000Y-146640000D02*
X216464000Y-146640000D01*
X218384000Y-143780000D02*
X218384000Y-146640000D01*
G04 #@! TO.C,D35*
X237434000Y-144034000D02*
X237434000Y-146894000D01*
X237434000Y-146894000D02*
X235514000Y-146894000D01*
X235514000Y-146894000D02*
X235514000Y-144034000D01*
G04 #@! TO.C,D36*
X254564000Y-146894000D02*
X254564000Y-144034000D01*
X256484000Y-146894000D02*
X254564000Y-146894000D01*
X256484000Y-144034000D02*
X256484000Y-146894000D01*
G04 #@! TO.C,D37*
X275534000Y-144034000D02*
X275534000Y-146894000D01*
X275534000Y-146894000D02*
X273614000Y-146894000D01*
X273614000Y-146894000D02*
X273614000Y-144034000D01*
G04 #@! TO.C,D38*
X292664000Y-146894000D02*
X292664000Y-144034000D01*
X294584000Y-146894000D02*
X292664000Y-146894000D01*
X294584000Y-144034000D02*
X294584000Y-146894000D01*
G04 #@! TO.C,D39*
X313634000Y-144034000D02*
X313634000Y-146894000D01*
X313634000Y-146894000D02*
X311714000Y-146894000D01*
X311714000Y-146894000D02*
X311714000Y-144034000D01*
G04 #@! TO.C,D40*
X332684000Y-144034000D02*
X332684000Y-146894000D01*
X332684000Y-146894000D02*
X330764000Y-146894000D01*
X330764000Y-146894000D02*
X330764000Y-144034000D01*
G04 #@! TO.C,D41*
X89860000Y-163261800D02*
X89860000Y-166121800D01*
X89860000Y-166121800D02*
X87940000Y-166121800D01*
X87940000Y-166121800D02*
X87940000Y-163261800D01*
G04 #@! TO.C,D42*
X113482000Y-163261800D02*
X113482000Y-166121800D01*
X113482000Y-166121800D02*
X111562000Y-166121800D01*
X111562000Y-166121800D02*
X111562000Y-163261800D01*
G04 #@! TO.C,D43*
X130866000Y-166109100D02*
X130866000Y-163249100D01*
X132786000Y-166109100D02*
X130866000Y-166109100D01*
X132786000Y-163249100D02*
X132786000Y-166109100D01*
G04 #@! TO.C,D44*
X151836000Y-163249100D02*
X151836000Y-166109100D01*
X151836000Y-166109100D02*
X149916000Y-166109100D01*
X149916000Y-166109100D02*
X149916000Y-163249100D01*
G04 #@! TO.C,D45*
X168966000Y-166121800D02*
X168966000Y-163261800D01*
X170886000Y-166121800D02*
X168966000Y-166121800D01*
X170886000Y-163261800D02*
X170886000Y-166121800D01*
G04 #@! TO.C,D46*
X188016000Y-166198000D02*
X188016000Y-163338000D01*
X189936000Y-166198000D02*
X188016000Y-166198000D01*
X189936000Y-163338000D02*
X189936000Y-166198000D01*
G04 #@! TO.C,D47*
X208986000Y-163261800D02*
X208986000Y-166121800D01*
X208986000Y-166121800D02*
X207066000Y-166121800D01*
X207066000Y-166121800D02*
X207066000Y-163261800D01*
G04 #@! TO.C,D48*
X228036000Y-163338000D02*
X228036000Y-166198000D01*
X228036000Y-166198000D02*
X226116000Y-166198000D01*
X226116000Y-166198000D02*
X226116000Y-163338000D01*
G04 #@! TO.C,D49*
X247086000Y-163338000D02*
X247086000Y-166198000D01*
X247086000Y-166198000D02*
X245166000Y-166198000D01*
X245166000Y-166198000D02*
X245166000Y-163338000D01*
G04 #@! TO.C,D50*
X266136000Y-163261800D02*
X266136000Y-166121800D01*
X266136000Y-166121800D02*
X264216000Y-166121800D01*
X264216000Y-166121800D02*
X264216000Y-163261800D01*
G04 #@! TO.C,D51*
X285186000Y-163287200D02*
X285186000Y-166147200D01*
X285186000Y-166147200D02*
X283266000Y-166147200D01*
X283266000Y-166147200D02*
X283266000Y-163287200D01*
G04 #@! TO.C,D52*
X303982000Y-163338000D02*
X303982000Y-166198000D01*
X303982000Y-166198000D02*
X302062000Y-166198000D01*
X302062000Y-166198000D02*
X302062000Y-163338000D01*
G04 #@! TO.C,D53*
X321366000Y-166310000D02*
X321366000Y-163450000D01*
X323286000Y-166310000D02*
X321366000Y-166310000D01*
X323286000Y-163450000D02*
X323286000Y-166310000D01*
G04 #@! TO.C,D54*
X83368000Y-184994000D02*
X83368000Y-182134000D01*
X85288000Y-184994000D02*
X83368000Y-184994000D01*
X85288000Y-182134000D02*
X85288000Y-184994000D01*
G04 #@! TO.C,D55*
X114102000Y-184994000D02*
X114102000Y-182134000D01*
X116022000Y-184994000D02*
X114102000Y-184994000D01*
X116022000Y-182134000D02*
X116022000Y-184994000D01*
G04 #@! TO.C,D56*
X140264000Y-185146400D02*
X140264000Y-182286400D01*
X142184000Y-185146400D02*
X140264000Y-185146400D01*
X142184000Y-182286400D02*
X142184000Y-185146400D01*
G04 #@! TO.C,D57*
X216464000Y-185146400D02*
X216464000Y-182286400D01*
X218384000Y-185146400D02*
X216464000Y-185146400D01*
X218384000Y-182286400D02*
X218384000Y-185146400D01*
G04 #@! TO.C,D58*
X292918000Y-185248000D02*
X292918000Y-182388000D01*
X294838000Y-185248000D02*
X292918000Y-185248000D01*
X294838000Y-182388000D02*
X294838000Y-185248000D01*
G04 #@! TO.C,D59*
X319080000Y-185248000D02*
X319080000Y-182388000D01*
X321000000Y-185248000D02*
X319080000Y-185248000D01*
X321000000Y-182388000D02*
X321000000Y-185248000D01*
G04 #@! TO.C,D60*
X342336000Y-182388000D02*
X342336000Y-185248000D01*
X342336000Y-185248000D02*
X340416000Y-185248000D01*
X340416000Y-185248000D02*
X340416000Y-182388000D01*
G04 #@! TO.C,D61*
X343464000Y-144608000D02*
X343464000Y-141748000D01*
X345384000Y-144608000D02*
X343464000Y-144608000D01*
X345384000Y-141748000D02*
X345384000Y-144608000D01*
G04 #@! TO.C,D62*
X377065000Y-108935000D02*
X377065000Y-106075000D01*
X378985000Y-108935000D02*
X377065000Y-108935000D01*
X378985000Y-106075000D02*
X378985000Y-108935000D01*
G04 #@! TO.C,D63*
X378785000Y-125000000D02*
X378785000Y-127860000D01*
X378785000Y-127860000D02*
X376865000Y-127860000D01*
X376865000Y-127860000D02*
X376865000Y-125000000D01*
G04 #@! TO.C,D64*
X342336000Y-163450000D02*
X342336000Y-166310000D01*
X342336000Y-166310000D02*
X340416000Y-166310000D01*
X340416000Y-166310000D02*
X340416000Y-163450000D01*
G04 #@! TO.C,D65*
X359466000Y-166310000D02*
X359466000Y-163450000D01*
X361386000Y-166310000D02*
X359466000Y-166310000D01*
X361386000Y-163450000D02*
X361386000Y-166310000D01*
G04 #@! TO.C,D66*
X357068000Y-182388000D02*
X357068000Y-185248000D01*
X357068000Y-185248000D02*
X355148000Y-185248000D01*
X355148000Y-185248000D02*
X355148000Y-182388000D01*
G04 #@! TO.C,D67*
X377754000Y-185502000D02*
X377754000Y-182642000D01*
X379674000Y-185502000D02*
X377754000Y-185502000D01*
X379674000Y-182642000D02*
X379674000Y-185502000D01*
G04 #@! TO.C,J1*
D11*
X358473333Y-100582380D02*
X358473333Y-101296666D01*
X358520952Y-101439523D01*
X358616190Y-101534761D01*
X358759047Y-101582380D01*
X358854285Y-101582380D01*
X357473333Y-101582380D02*
X358044761Y-101582380D01*
X357759047Y-101582380D02*
X357759047Y-100582380D01*
X357854285Y-100725238D01*
X357949523Y-100820476D01*
X358044761Y-100868095D01*
X86921933Y-100582380D02*
X86921933Y-101296666D01*
X86969552Y-101439523D01*
X87064790Y-101534761D01*
X87207647Y-101582380D01*
X87302885Y-101582380D01*
X85921933Y-101582380D02*
X86493361Y-101582380D01*
X86207647Y-101582380D02*
X86207647Y-100582380D01*
X86302885Y-100725238D01*
X86398123Y-100820476D01*
X86493361Y-100868095D01*
G04 #@! TO.C,K1*
X80290895Y-104389180D02*
X80290895Y-103389180D01*
X79719466Y-104389180D02*
X80148038Y-103817752D01*
X79719466Y-103389180D02*
X80290895Y-103960609D01*
X78767085Y-104389180D02*
X79338514Y-104389180D01*
X79052800Y-104389180D02*
X79052800Y-103389180D01*
X79148038Y-103532038D01*
X79243276Y-103627276D01*
X79338514Y-103674895D01*
G04 #@! TO.C,R1*
X91467619Y-113163095D02*
X91420000Y-113210714D01*
X91372380Y-113305952D01*
X91372380Y-113544047D01*
X91420000Y-113639285D01*
X91467619Y-113686904D01*
X91562857Y-113734523D01*
X91658095Y-113734523D01*
X91800952Y-113686904D01*
X92372380Y-113115476D01*
X92372380Y-113734523D01*
X91467619Y-114115476D02*
X91420000Y-114163095D01*
X91372380Y-114258333D01*
X91372380Y-114496428D01*
X91420000Y-114591666D01*
X91467619Y-114639285D01*
X91562857Y-114686904D01*
X91658095Y-114686904D01*
X91800952Y-114639285D01*
X92372380Y-114067857D01*
X92372380Y-114686904D01*
G04 #@! TO.C,R2*
X85847619Y-113138095D02*
X85800000Y-113185714D01*
X85752380Y-113280952D01*
X85752380Y-113519047D01*
X85800000Y-113614285D01*
X85847619Y-113661904D01*
X85942857Y-113709523D01*
X86038095Y-113709523D01*
X86180952Y-113661904D01*
X86752380Y-113090476D01*
X86752380Y-113709523D01*
X85847619Y-114090476D02*
X85800000Y-114138095D01*
X85752380Y-114233333D01*
X85752380Y-114471428D01*
X85800000Y-114566666D01*
X85847619Y-114614285D01*
X85942857Y-114661904D01*
X86038095Y-114661904D01*
X86180952Y-114614285D01*
X86752380Y-114042857D01*
X86752380Y-114661904D01*
G04 #@! TO.C,R3*
X189174380Y-187523523D02*
X189174380Y-186952095D01*
X189174380Y-187237809D02*
X188174380Y-187237809D01*
X188317238Y-187142571D01*
X188412476Y-187047333D01*
X188460095Y-186952095D01*
X188174380Y-188142571D02*
X188174380Y-188237809D01*
X188222000Y-188333047D01*
X188269619Y-188380666D01*
X188364857Y-188428285D01*
X188555333Y-188475904D01*
X188793428Y-188475904D01*
X188983904Y-188428285D01*
X189079142Y-188380666D01*
X189126761Y-188333047D01*
X189174380Y-188237809D01*
X189174380Y-188142571D01*
X189126761Y-188047333D01*
X189079142Y-187999714D01*
X188983904Y-187952095D01*
X188793428Y-187904476D01*
X188555333Y-187904476D01*
X188364857Y-187952095D01*
X188269619Y-187999714D01*
X188222000Y-188047333D01*
X188174380Y-188142571D01*
X189174380Y-188904476D02*
X188174380Y-188904476D01*
X189174380Y-189475904D02*
X188602952Y-189047333D01*
X188174380Y-189475904D02*
X188745809Y-188904476D01*
G04 #@! TO.C,R4*
X175486380Y-166615523D02*
X175486380Y-166044095D01*
X175486380Y-166329809D02*
X174486380Y-166329809D01*
X174629238Y-166234571D01*
X174724476Y-166139333D01*
X174772095Y-166044095D01*
X174486380Y-167234571D02*
X174486380Y-167329809D01*
X174534000Y-167425047D01*
X174581619Y-167472666D01*
X174676857Y-167520285D01*
X174867333Y-167567904D01*
X175105428Y-167567904D01*
X175295904Y-167520285D01*
X175391142Y-167472666D01*
X175438761Y-167425047D01*
X175486380Y-167329809D01*
X175486380Y-167234571D01*
X175438761Y-167139333D01*
X175391142Y-167091714D01*
X175295904Y-167044095D01*
X175105428Y-166996476D01*
X174867333Y-166996476D01*
X174676857Y-167044095D01*
X174581619Y-167091714D01*
X174534000Y-167139333D01*
X174486380Y-167234571D01*
X175486380Y-167996476D02*
X174486380Y-167996476D01*
X175486380Y-168567904D02*
X174914952Y-168139333D01*
X174486380Y-168567904D02*
X175057809Y-167996476D01*
G04 #@! TO.C,SW1*
X102057033Y-141058361D02*
X101914176Y-141105980D01*
X101676080Y-141105980D01*
X101580842Y-141058361D01*
X101533223Y-141010742D01*
X101485604Y-140915504D01*
X101485604Y-140820266D01*
X101533223Y-140725028D01*
X101580842Y-140677409D01*
X101676080Y-140629790D01*
X101866557Y-140582171D01*
X101961795Y-140534552D01*
X102009414Y-140486933D01*
X102057033Y-140391695D01*
X102057033Y-140296457D01*
X102009414Y-140201219D01*
X101961795Y-140153600D01*
X101866557Y-140105980D01*
X101628461Y-140105980D01*
X101485604Y-140153600D01*
X101152271Y-140105980D02*
X100914176Y-141105980D01*
X100723700Y-140391695D01*
X100533223Y-141105980D01*
X100295128Y-140105980D01*
X99390366Y-141105980D02*
X99961795Y-141105980D01*
X99676080Y-141105980D02*
X99676080Y-140105980D01*
X99771319Y-140248838D01*
X99866557Y-140344076D01*
X99961795Y-140391695D01*
G04 #@! TO.C,C1*
X162283142Y-188233333D02*
X162330761Y-188185714D01*
X162378380Y-188042857D01*
X162378380Y-187947619D01*
X162330761Y-187804761D01*
X162235523Y-187709523D01*
X162140285Y-187661904D01*
X161949809Y-187614285D01*
X161806952Y-187614285D01*
X161616476Y-187661904D01*
X161521238Y-187709523D01*
X161426000Y-187804761D01*
X161378380Y-187947619D01*
X161378380Y-188042857D01*
X161426000Y-188185714D01*
X161473619Y-188233333D01*
X162378380Y-189185714D02*
X162378380Y-188614285D01*
X162378380Y-188900000D02*
X161378380Y-188900000D01*
X161521238Y-188804761D01*
X161616476Y-188709523D01*
X161664095Y-188614285D01*
G04 #@! TO.C,C2*
X180063142Y-188301333D02*
X180110761Y-188253714D01*
X180158380Y-188110857D01*
X180158380Y-188015619D01*
X180110761Y-187872761D01*
X180015523Y-187777523D01*
X179920285Y-187729904D01*
X179729809Y-187682285D01*
X179586952Y-187682285D01*
X179396476Y-187729904D01*
X179301238Y-187777523D01*
X179206000Y-187872761D01*
X179158380Y-188015619D01*
X179158380Y-188110857D01*
X179206000Y-188253714D01*
X179253619Y-188301333D01*
X179253619Y-188682285D02*
X179206000Y-188729904D01*
X179158380Y-188825142D01*
X179158380Y-189063238D01*
X179206000Y-189158476D01*
X179253619Y-189206095D01*
X179348857Y-189253714D01*
X179444095Y-189253714D01*
X179586952Y-189206095D01*
X180158380Y-188634666D01*
X180158380Y-189253714D01*
G04 #@! TO.C,C3*
X168631142Y-167493333D02*
X168678761Y-167445714D01*
X168726380Y-167302857D01*
X168726380Y-167207619D01*
X168678761Y-167064761D01*
X168583523Y-166969523D01*
X168488285Y-166921904D01*
X168297809Y-166874285D01*
X168154952Y-166874285D01*
X167964476Y-166921904D01*
X167869238Y-166969523D01*
X167774000Y-167064761D01*
X167726380Y-167207619D01*
X167726380Y-167302857D01*
X167774000Y-167445714D01*
X167821619Y-167493333D01*
X167726380Y-167826666D02*
X167726380Y-168445714D01*
X168107333Y-168112380D01*
X168107333Y-168255238D01*
X168154952Y-168350476D01*
X168202571Y-168398095D01*
X168297809Y-168445714D01*
X168535904Y-168445714D01*
X168631142Y-168398095D01*
X168678761Y-168350476D01*
X168726380Y-168255238D01*
X168726380Y-167969523D01*
X168678761Y-167874285D01*
X168631142Y-167826666D01*
G04 #@! TO.C,C4*
X166601142Y-188233333D02*
X166648761Y-188185714D01*
X166696380Y-188042857D01*
X166696380Y-187947619D01*
X166648761Y-187804761D01*
X166553523Y-187709523D01*
X166458285Y-187661904D01*
X166267809Y-187614285D01*
X166124952Y-187614285D01*
X165934476Y-187661904D01*
X165839238Y-187709523D01*
X165744000Y-187804761D01*
X165696380Y-187947619D01*
X165696380Y-188042857D01*
X165744000Y-188185714D01*
X165791619Y-188233333D01*
X166029714Y-189090476D02*
X166696380Y-189090476D01*
X165648761Y-188852380D02*
X166363047Y-188614285D01*
X166363047Y-189233333D01*
G04 #@! TO.C,C5*
X174729142Y-188047333D02*
X174776761Y-187999714D01*
X174824380Y-187856857D01*
X174824380Y-187761619D01*
X174776761Y-187618761D01*
X174681523Y-187523523D01*
X174586285Y-187475904D01*
X174395809Y-187428285D01*
X174252952Y-187428285D01*
X174062476Y-187475904D01*
X173967238Y-187523523D01*
X173872000Y-187618761D01*
X173824380Y-187761619D01*
X173824380Y-187856857D01*
X173872000Y-187999714D01*
X173919619Y-188047333D01*
X173824380Y-188952095D02*
X173824380Y-188475904D01*
X174300571Y-188428285D01*
X174252952Y-188475904D01*
X174205333Y-188571142D01*
X174205333Y-188809238D01*
X174252952Y-188904476D01*
X174300571Y-188952095D01*
X174395809Y-188999714D01*
X174633904Y-188999714D01*
X174729142Y-188952095D01*
X174776761Y-188904476D01*
X174824380Y-188809238D01*
X174824380Y-188571142D01*
X174776761Y-188475904D01*
X174729142Y-188428285D01*
G04 #@! TO.C,C6*
X159698666Y-172951142D02*
X159746285Y-172998761D01*
X159889142Y-173046380D01*
X159984380Y-173046380D01*
X160127238Y-172998761D01*
X160222476Y-172903523D01*
X160270095Y-172808285D01*
X160317714Y-172617809D01*
X160317714Y-172474952D01*
X160270095Y-172284476D01*
X160222476Y-172189238D01*
X160127238Y-172094000D01*
X159984380Y-172046380D01*
X159889142Y-172046380D01*
X159746285Y-172094000D01*
X159698666Y-172141619D01*
X158841523Y-172046380D02*
X159032000Y-172046380D01*
X159127238Y-172094000D01*
X159174857Y-172141619D01*
X159270095Y-172284476D01*
X159317714Y-172474952D01*
X159317714Y-172855904D01*
X159270095Y-172951142D01*
X159222476Y-172998761D01*
X159127238Y-173046380D01*
X158936761Y-173046380D01*
X158841523Y-172998761D01*
X158793904Y-172951142D01*
X158746285Y-172855904D01*
X158746285Y-172617809D01*
X158793904Y-172522571D01*
X158841523Y-172474952D01*
X158936761Y-172427333D01*
X159127238Y-172427333D01*
X159222476Y-172474952D01*
X159270095Y-172522571D01*
X159317714Y-172617809D01*
G04 #@! TO.C,C7*
X160431666Y-185649142D02*
X160479285Y-185696761D01*
X160622142Y-185744380D01*
X160717380Y-185744380D01*
X160860238Y-185696761D01*
X160955476Y-185601523D01*
X161003095Y-185506285D01*
X161050714Y-185315809D01*
X161050714Y-185172952D01*
X161003095Y-184982476D01*
X160955476Y-184887238D01*
X160860238Y-184792000D01*
X160717380Y-184744380D01*
X160622142Y-184744380D01*
X160479285Y-184792000D01*
X160431666Y-184839619D01*
X160098333Y-184744380D02*
X159431666Y-184744380D01*
X159860238Y-185744380D01*
G04 #@! TO.C,C8*
X173711142Y-188310333D02*
X173758761Y-188262714D01*
X173806380Y-188119857D01*
X173806380Y-188024619D01*
X173758761Y-187881761D01*
X173663523Y-187786523D01*
X173568285Y-187738904D01*
X173377809Y-187691285D01*
X173234952Y-187691285D01*
X173044476Y-187738904D01*
X172949238Y-187786523D01*
X172854000Y-187881761D01*
X172806380Y-188024619D01*
X172806380Y-188119857D01*
X172854000Y-188262714D01*
X172901619Y-188310333D01*
X173234952Y-188881761D02*
X173187333Y-188786523D01*
X173139714Y-188738904D01*
X173044476Y-188691285D01*
X172996857Y-188691285D01*
X172901619Y-188738904D01*
X172854000Y-188786523D01*
X172806380Y-188881761D01*
X172806380Y-189072238D01*
X172854000Y-189167476D01*
X172901619Y-189215095D01*
X172996857Y-189262714D01*
X173044476Y-189262714D01*
X173139714Y-189215095D01*
X173187333Y-189167476D01*
X173234952Y-189072238D01*
X173234952Y-188881761D01*
X173282571Y-188786523D01*
X173330190Y-188738904D01*
X173425428Y-188691285D01*
X173615904Y-188691285D01*
X173711142Y-188738904D01*
X173758761Y-188786523D01*
X173806380Y-188881761D01*
X173806380Y-189072238D01*
X173758761Y-189167476D01*
X173711142Y-189215095D01*
X173615904Y-189262714D01*
X173425428Y-189262714D01*
X173330190Y-189215095D01*
X173282571Y-189167476D01*
X173234952Y-189072238D01*
G04 #@! TO.C,D1*
X74552380Y-106486904D02*
X73552380Y-106486904D01*
X73552380Y-106725000D01*
X73600000Y-106867857D01*
X73695238Y-106963095D01*
X73790476Y-107010714D01*
X73980952Y-107058333D01*
X74123809Y-107058333D01*
X74314285Y-107010714D01*
X74409523Y-106963095D01*
X74504761Y-106867857D01*
X74552380Y-106725000D01*
X74552380Y-106486904D01*
X74552380Y-108010714D02*
X74552380Y-107439285D01*
X74552380Y-107725000D02*
X73552380Y-107725000D01*
X73695238Y-107629761D01*
X73790476Y-107534523D01*
X73838095Y-107439285D01*
G04 #@! TO.C,D2*
X110052380Y-106449904D02*
X109052380Y-106449904D01*
X109052380Y-106688000D01*
X109100000Y-106830857D01*
X109195238Y-106926095D01*
X109290476Y-106973714D01*
X109480952Y-107021333D01*
X109623809Y-107021333D01*
X109814285Y-106973714D01*
X109909523Y-106926095D01*
X110004761Y-106830857D01*
X110052380Y-106688000D01*
X110052380Y-106449904D01*
X109147619Y-107402285D02*
X109100000Y-107449904D01*
X109052380Y-107545142D01*
X109052380Y-107783238D01*
X109100000Y-107878476D01*
X109147619Y-107926095D01*
X109242857Y-107973714D01*
X109338095Y-107973714D01*
X109480952Y-107926095D01*
X110052380Y-107354666D01*
X110052380Y-107973714D01*
G04 #@! TO.C,D3*
X129102380Y-106449904D02*
X128102380Y-106449904D01*
X128102380Y-106688000D01*
X128150000Y-106830857D01*
X128245238Y-106926095D01*
X128340476Y-106973714D01*
X128530952Y-107021333D01*
X128673809Y-107021333D01*
X128864285Y-106973714D01*
X128959523Y-106926095D01*
X129054761Y-106830857D01*
X129102380Y-106688000D01*
X129102380Y-106449904D01*
X128102380Y-107354666D02*
X128102380Y-107973714D01*
X128483333Y-107640380D01*
X128483333Y-107783238D01*
X128530952Y-107878476D01*
X128578571Y-107926095D01*
X128673809Y-107973714D01*
X128911904Y-107973714D01*
X129007142Y-107926095D01*
X129054761Y-107878476D01*
X129102380Y-107783238D01*
X129102380Y-107497523D01*
X129054761Y-107402285D01*
X129007142Y-107354666D01*
G04 #@! TO.C,D4*
X148152380Y-106449904D02*
X147152380Y-106449904D01*
X147152380Y-106688000D01*
X147200000Y-106830857D01*
X147295238Y-106926095D01*
X147390476Y-106973714D01*
X147580952Y-107021333D01*
X147723809Y-107021333D01*
X147914285Y-106973714D01*
X148009523Y-106926095D01*
X148104761Y-106830857D01*
X148152380Y-106688000D01*
X148152380Y-106449904D01*
X147485714Y-107878476D02*
X148152380Y-107878476D01*
X147104761Y-107640380D02*
X147819047Y-107402285D01*
X147819047Y-108021333D01*
G04 #@! TO.C,D5*
X167202380Y-106373704D02*
X166202380Y-106373704D01*
X166202380Y-106611800D01*
X166250000Y-106754657D01*
X166345238Y-106849895D01*
X166440476Y-106897514D01*
X166630952Y-106945133D01*
X166773809Y-106945133D01*
X166964285Y-106897514D01*
X167059523Y-106849895D01*
X167154761Y-106754657D01*
X167202380Y-106611800D01*
X167202380Y-106373704D01*
X166202380Y-107849895D02*
X166202380Y-107373704D01*
X166678571Y-107326085D01*
X166630952Y-107373704D01*
X166583333Y-107468942D01*
X166583333Y-107707038D01*
X166630952Y-107802276D01*
X166678571Y-107849895D01*
X166773809Y-107897514D01*
X167011904Y-107897514D01*
X167107142Y-107849895D01*
X167154761Y-107802276D01*
X167202380Y-107707038D01*
X167202380Y-107468942D01*
X167154761Y-107373704D01*
X167107142Y-107326085D01*
G04 #@! TO.C,D6*
X186252380Y-106386404D02*
X185252380Y-106386404D01*
X185252380Y-106624500D01*
X185300000Y-106767357D01*
X185395238Y-106862595D01*
X185490476Y-106910214D01*
X185680952Y-106957833D01*
X185823809Y-106957833D01*
X186014285Y-106910214D01*
X186109523Y-106862595D01*
X186204761Y-106767357D01*
X186252380Y-106624500D01*
X186252380Y-106386404D01*
X185252380Y-107814976D02*
X185252380Y-107624500D01*
X185300000Y-107529261D01*
X185347619Y-107481642D01*
X185490476Y-107386404D01*
X185680952Y-107338785D01*
X186061904Y-107338785D01*
X186157142Y-107386404D01*
X186204761Y-107434023D01*
X186252380Y-107529261D01*
X186252380Y-107719738D01*
X186204761Y-107814976D01*
X186157142Y-107862595D01*
X186061904Y-107910214D01*
X185823809Y-107910214D01*
X185728571Y-107862595D01*
X185680952Y-107814976D01*
X185633333Y-107719738D01*
X185633333Y-107529261D01*
X185680952Y-107434023D01*
X185728571Y-107386404D01*
X185823809Y-107338785D01*
G04 #@! TO.C,D7*
X205302380Y-106373704D02*
X204302380Y-106373704D01*
X204302380Y-106611800D01*
X204350000Y-106754657D01*
X204445238Y-106849895D01*
X204540476Y-106897514D01*
X204730952Y-106945133D01*
X204873809Y-106945133D01*
X205064285Y-106897514D01*
X205159523Y-106849895D01*
X205254761Y-106754657D01*
X205302380Y-106611800D01*
X205302380Y-106373704D01*
X204302380Y-107278466D02*
X204302380Y-107945133D01*
X205302380Y-107516561D01*
G04 #@! TO.C,D8*
X224352380Y-106373704D02*
X223352380Y-106373704D01*
X223352380Y-106611800D01*
X223400000Y-106754657D01*
X223495238Y-106849895D01*
X223590476Y-106897514D01*
X223780952Y-106945133D01*
X223923809Y-106945133D01*
X224114285Y-106897514D01*
X224209523Y-106849895D01*
X224304761Y-106754657D01*
X224352380Y-106611800D01*
X224352380Y-106373704D01*
X223780952Y-107516561D02*
X223733333Y-107421323D01*
X223685714Y-107373704D01*
X223590476Y-107326085D01*
X223542857Y-107326085D01*
X223447619Y-107373704D01*
X223400000Y-107421323D01*
X223352380Y-107516561D01*
X223352380Y-107707038D01*
X223400000Y-107802276D01*
X223447619Y-107849895D01*
X223542857Y-107897514D01*
X223590476Y-107897514D01*
X223685714Y-107849895D01*
X223733333Y-107802276D01*
X223780952Y-107707038D01*
X223780952Y-107516561D01*
X223828571Y-107421323D01*
X223876190Y-107373704D01*
X223971428Y-107326085D01*
X224161904Y-107326085D01*
X224257142Y-107373704D01*
X224304761Y-107421323D01*
X224352380Y-107516561D01*
X224352380Y-107707038D01*
X224304761Y-107802276D01*
X224257142Y-107849895D01*
X224161904Y-107897514D01*
X223971428Y-107897514D01*
X223876190Y-107849895D01*
X223828571Y-107802276D01*
X223780952Y-107707038D01*
G04 #@! TO.C,D9*
X243402380Y-106373704D02*
X242402380Y-106373704D01*
X242402380Y-106611800D01*
X242450000Y-106754657D01*
X242545238Y-106849895D01*
X242640476Y-106897514D01*
X242830952Y-106945133D01*
X242973809Y-106945133D01*
X243164285Y-106897514D01*
X243259523Y-106849895D01*
X243354761Y-106754657D01*
X243402380Y-106611800D01*
X243402380Y-106373704D01*
X243402380Y-107421323D02*
X243402380Y-107611800D01*
X243354761Y-107707038D01*
X243307142Y-107754657D01*
X243164285Y-107849895D01*
X242973809Y-107897514D01*
X242592857Y-107897514D01*
X242497619Y-107849895D01*
X242450000Y-107802276D01*
X242402380Y-107707038D01*
X242402380Y-107516561D01*
X242450000Y-107421323D01*
X242497619Y-107373704D01*
X242592857Y-107326085D01*
X242830952Y-107326085D01*
X242926190Y-107373704D01*
X242973809Y-107421323D01*
X243021428Y-107516561D01*
X243021428Y-107707038D01*
X242973809Y-107802276D01*
X242926190Y-107849895D01*
X242830952Y-107897514D01*
G04 #@! TO.C,D10*
X262452380Y-105872114D02*
X261452380Y-105872114D01*
X261452380Y-106110209D01*
X261500000Y-106253066D01*
X261595238Y-106348304D01*
X261690476Y-106395923D01*
X261880952Y-106443542D01*
X262023809Y-106443542D01*
X262214285Y-106395923D01*
X262309523Y-106348304D01*
X262404761Y-106253066D01*
X262452380Y-106110209D01*
X262452380Y-105872114D01*
X262452380Y-107395923D02*
X262452380Y-106824495D01*
X262452380Y-107110209D02*
X261452380Y-107110209D01*
X261595238Y-107014971D01*
X261690476Y-106919733D01*
X261738095Y-106824495D01*
X261452380Y-108014971D02*
X261452380Y-108110209D01*
X261500000Y-108205447D01*
X261547619Y-108253066D01*
X261642857Y-108300685D01*
X261833333Y-108348304D01*
X262071428Y-108348304D01*
X262261904Y-108300685D01*
X262357142Y-108253066D01*
X262404761Y-108205447D01*
X262452380Y-108110209D01*
X262452380Y-108014971D01*
X262404761Y-107919733D01*
X262357142Y-107872114D01*
X262261904Y-107824495D01*
X262071428Y-107776876D01*
X261833333Y-107776876D01*
X261642857Y-107824495D01*
X261547619Y-107872114D01*
X261500000Y-107919733D01*
X261452380Y-108014971D01*
G04 #@! TO.C,D11*
X281502380Y-105859414D02*
X280502380Y-105859414D01*
X280502380Y-106097509D01*
X280550000Y-106240366D01*
X280645238Y-106335604D01*
X280740476Y-106383223D01*
X280930952Y-106430842D01*
X281073809Y-106430842D01*
X281264285Y-106383223D01*
X281359523Y-106335604D01*
X281454761Y-106240366D01*
X281502380Y-106097509D01*
X281502380Y-105859414D01*
X281502380Y-107383223D02*
X281502380Y-106811795D01*
X281502380Y-107097509D02*
X280502380Y-107097509D01*
X280645238Y-107002271D01*
X280740476Y-106907033D01*
X280788095Y-106811795D01*
X281502380Y-108335604D02*
X281502380Y-107764176D01*
X281502380Y-108049890D02*
X280502380Y-108049890D01*
X280645238Y-107954652D01*
X280740476Y-107859414D01*
X280788095Y-107764176D01*
G04 #@! TO.C,D12*
X300552380Y-105859414D02*
X299552380Y-105859414D01*
X299552380Y-106097509D01*
X299600000Y-106240366D01*
X299695238Y-106335604D01*
X299790476Y-106383223D01*
X299980952Y-106430842D01*
X300123809Y-106430842D01*
X300314285Y-106383223D01*
X300409523Y-106335604D01*
X300504761Y-106240366D01*
X300552380Y-106097509D01*
X300552380Y-105859414D01*
X300552380Y-107383223D02*
X300552380Y-106811795D01*
X300552380Y-107097509D02*
X299552380Y-107097509D01*
X299695238Y-107002271D01*
X299790476Y-106907033D01*
X299838095Y-106811795D01*
X299647619Y-107764176D02*
X299600000Y-107811795D01*
X299552380Y-107907033D01*
X299552380Y-108145128D01*
X299600000Y-108240366D01*
X299647619Y-108287985D01*
X299742857Y-108335604D01*
X299838095Y-108335604D01*
X299980952Y-108287985D01*
X300552380Y-107716557D01*
X300552380Y-108335604D01*
G04 #@! TO.C,D13*
X319452380Y-105810714D02*
X318452380Y-105810714D01*
X318452380Y-106048809D01*
X318500000Y-106191666D01*
X318595238Y-106286904D01*
X318690476Y-106334523D01*
X318880952Y-106382142D01*
X319023809Y-106382142D01*
X319214285Y-106334523D01*
X319309523Y-106286904D01*
X319404761Y-106191666D01*
X319452380Y-106048809D01*
X319452380Y-105810714D01*
X319452380Y-107334523D02*
X319452380Y-106763095D01*
X319452380Y-107048809D02*
X318452380Y-107048809D01*
X318595238Y-106953571D01*
X318690476Y-106858333D01*
X318738095Y-106763095D01*
X318452380Y-107667857D02*
X318452380Y-108286904D01*
X318833333Y-107953571D01*
X318833333Y-108096428D01*
X318880952Y-108191666D01*
X318928571Y-108239285D01*
X319023809Y-108286904D01*
X319261904Y-108286904D01*
X319357142Y-108239285D01*
X319404761Y-108191666D01*
X319452380Y-108096428D01*
X319452380Y-107810714D01*
X319404761Y-107715476D01*
X319357142Y-107667857D01*
G04 #@! TO.C,D14*
X345764380Y-105719714D02*
X344764380Y-105719714D01*
X344764380Y-105957809D01*
X344812000Y-106100666D01*
X344907238Y-106195904D01*
X345002476Y-106243523D01*
X345192952Y-106291142D01*
X345335809Y-106291142D01*
X345526285Y-106243523D01*
X345621523Y-106195904D01*
X345716761Y-106100666D01*
X345764380Y-105957809D01*
X345764380Y-105719714D01*
X345764380Y-107243523D02*
X345764380Y-106672095D01*
X345764380Y-106957809D02*
X344764380Y-106957809D01*
X344907238Y-106862571D01*
X345002476Y-106767333D01*
X345050095Y-106672095D01*
X345097714Y-108100666D02*
X345764380Y-108100666D01*
X344716761Y-107862571D02*
X345431047Y-107624476D01*
X345431047Y-108243523D01*
G04 #@! TO.C,D15*
X79419980Y-124947514D02*
X78419980Y-124947514D01*
X78419980Y-125185609D01*
X78467600Y-125328466D01*
X78562838Y-125423704D01*
X78658076Y-125471323D01*
X78848552Y-125518942D01*
X78991409Y-125518942D01*
X79181885Y-125471323D01*
X79277123Y-125423704D01*
X79372361Y-125328466D01*
X79419980Y-125185609D01*
X79419980Y-124947514D01*
X79419980Y-126471323D02*
X79419980Y-125899895D01*
X79419980Y-126185609D02*
X78419980Y-126185609D01*
X78562838Y-126090371D01*
X78658076Y-125995133D01*
X78705695Y-125899895D01*
X78419980Y-127376085D02*
X78419980Y-126899895D01*
X78896171Y-126852276D01*
X78848552Y-126899895D01*
X78800933Y-126995133D01*
X78800933Y-127233228D01*
X78848552Y-127328466D01*
X78896171Y-127376085D01*
X78991409Y-127423704D01*
X79229504Y-127423704D01*
X79324742Y-127376085D01*
X79372361Y-127328466D01*
X79419980Y-127233228D01*
X79419980Y-126995133D01*
X79372361Y-126899895D01*
X79324742Y-126852276D01*
G04 #@! TO.C,D16*
X119704380Y-124960214D02*
X118704380Y-124960214D01*
X118704380Y-125198309D01*
X118752000Y-125341166D01*
X118847238Y-125436404D01*
X118942476Y-125484023D01*
X119132952Y-125531642D01*
X119275809Y-125531642D01*
X119466285Y-125484023D01*
X119561523Y-125436404D01*
X119656761Y-125341166D01*
X119704380Y-125198309D01*
X119704380Y-124960214D01*
X119704380Y-126484023D02*
X119704380Y-125912595D01*
X119704380Y-126198309D02*
X118704380Y-126198309D01*
X118847238Y-126103071D01*
X118942476Y-126007833D01*
X118990095Y-125912595D01*
X118704380Y-127341166D02*
X118704380Y-127150690D01*
X118752000Y-127055452D01*
X118799619Y-127007833D01*
X118942476Y-126912595D01*
X119132952Y-126864976D01*
X119513904Y-126864976D01*
X119609142Y-126912595D01*
X119656761Y-126960214D01*
X119704380Y-127055452D01*
X119704380Y-127245928D01*
X119656761Y-127341166D01*
X119609142Y-127388785D01*
X119513904Y-127436404D01*
X119275809Y-127436404D01*
X119180571Y-127388785D01*
X119132952Y-127341166D01*
X119085333Y-127245928D01*
X119085333Y-127055452D01*
X119132952Y-126960214D01*
X119180571Y-126912595D01*
X119275809Y-126864976D01*
G04 #@! TO.C,D17*
X138754380Y-124947514D02*
X137754380Y-124947514D01*
X137754380Y-125185609D01*
X137802000Y-125328466D01*
X137897238Y-125423704D01*
X137992476Y-125471323D01*
X138182952Y-125518942D01*
X138325809Y-125518942D01*
X138516285Y-125471323D01*
X138611523Y-125423704D01*
X138706761Y-125328466D01*
X138754380Y-125185609D01*
X138754380Y-124947514D01*
X138754380Y-126471323D02*
X138754380Y-125899895D01*
X138754380Y-126185609D02*
X137754380Y-126185609D01*
X137897238Y-126090371D01*
X137992476Y-125995133D01*
X138040095Y-125899895D01*
X137754380Y-126804657D02*
X137754380Y-127471323D01*
X138754380Y-127042752D01*
G04 #@! TO.C,D18*
X157804380Y-124947514D02*
X156804380Y-124947514D01*
X156804380Y-125185609D01*
X156852000Y-125328466D01*
X156947238Y-125423704D01*
X157042476Y-125471323D01*
X157232952Y-125518942D01*
X157375809Y-125518942D01*
X157566285Y-125471323D01*
X157661523Y-125423704D01*
X157756761Y-125328466D01*
X157804380Y-125185609D01*
X157804380Y-124947514D01*
X157804380Y-126471323D02*
X157804380Y-125899895D01*
X157804380Y-126185609D02*
X156804380Y-126185609D01*
X156947238Y-126090371D01*
X157042476Y-125995133D01*
X157090095Y-125899895D01*
X157232952Y-127042752D02*
X157185333Y-126947514D01*
X157137714Y-126899895D01*
X157042476Y-126852276D01*
X156994857Y-126852276D01*
X156899619Y-126899895D01*
X156852000Y-126947514D01*
X156804380Y-127042752D01*
X156804380Y-127233228D01*
X156852000Y-127328466D01*
X156899619Y-127376085D01*
X156994857Y-127423704D01*
X157042476Y-127423704D01*
X157137714Y-127376085D01*
X157185333Y-127328466D01*
X157232952Y-127233228D01*
X157232952Y-127042752D01*
X157280571Y-126947514D01*
X157328190Y-126899895D01*
X157423428Y-126852276D01*
X157613904Y-126852276D01*
X157709142Y-126899895D01*
X157756761Y-126947514D01*
X157804380Y-127042752D01*
X157804380Y-127233228D01*
X157756761Y-127328466D01*
X157709142Y-127376085D01*
X157613904Y-127423704D01*
X157423428Y-127423704D01*
X157328190Y-127376085D01*
X157280571Y-127328466D01*
X157232952Y-127233228D01*
G04 #@! TO.C,D19*
X176600380Y-124934814D02*
X175600380Y-124934814D01*
X175600380Y-125172909D01*
X175648000Y-125315766D01*
X175743238Y-125411004D01*
X175838476Y-125458623D01*
X176028952Y-125506242D01*
X176171809Y-125506242D01*
X176362285Y-125458623D01*
X176457523Y-125411004D01*
X176552761Y-125315766D01*
X176600380Y-125172909D01*
X176600380Y-124934814D01*
X176600380Y-126458623D02*
X176600380Y-125887195D01*
X176600380Y-126172909D02*
X175600380Y-126172909D01*
X175743238Y-126077671D01*
X175838476Y-125982433D01*
X175886095Y-125887195D01*
X176600380Y-126934814D02*
X176600380Y-127125290D01*
X176552761Y-127220528D01*
X176505142Y-127268147D01*
X176362285Y-127363385D01*
X176171809Y-127411004D01*
X175790857Y-127411004D01*
X175695619Y-127363385D01*
X175648000Y-127315766D01*
X175600380Y-127220528D01*
X175600380Y-127030052D01*
X175648000Y-126934814D01*
X175695619Y-126887195D01*
X175790857Y-126839576D01*
X176028952Y-126839576D01*
X176124190Y-126887195D01*
X176171809Y-126934814D01*
X176219428Y-127030052D01*
X176219428Y-127220528D01*
X176171809Y-127315766D01*
X176124190Y-127363385D01*
X176028952Y-127411004D01*
G04 #@! TO.C,D20*
X195650380Y-125023714D02*
X194650380Y-125023714D01*
X194650380Y-125261809D01*
X194698000Y-125404666D01*
X194793238Y-125499904D01*
X194888476Y-125547523D01*
X195078952Y-125595142D01*
X195221809Y-125595142D01*
X195412285Y-125547523D01*
X195507523Y-125499904D01*
X195602761Y-125404666D01*
X195650380Y-125261809D01*
X195650380Y-125023714D01*
X194745619Y-125976095D02*
X194698000Y-126023714D01*
X194650380Y-126118952D01*
X194650380Y-126357047D01*
X194698000Y-126452285D01*
X194745619Y-126499904D01*
X194840857Y-126547523D01*
X194936095Y-126547523D01*
X195078952Y-126499904D01*
X195650380Y-125928476D01*
X195650380Y-126547523D01*
X194650380Y-127166571D02*
X194650380Y-127261809D01*
X194698000Y-127357047D01*
X194745619Y-127404666D01*
X194840857Y-127452285D01*
X195031333Y-127499904D01*
X195269428Y-127499904D01*
X195459904Y-127452285D01*
X195555142Y-127404666D01*
X195602761Y-127357047D01*
X195650380Y-127261809D01*
X195650380Y-127166571D01*
X195602761Y-127071333D01*
X195555142Y-127023714D01*
X195459904Y-126976095D01*
X195269428Y-126928476D01*
X195031333Y-126928476D01*
X194840857Y-126976095D01*
X194745619Y-127023714D01*
X194698000Y-127071333D01*
X194650380Y-127166571D01*
G04 #@! TO.C,D21*
X214700380Y-124960214D02*
X213700380Y-124960214D01*
X213700380Y-125198309D01*
X213748000Y-125341166D01*
X213843238Y-125436404D01*
X213938476Y-125484023D01*
X214128952Y-125531642D01*
X214271809Y-125531642D01*
X214462285Y-125484023D01*
X214557523Y-125436404D01*
X214652761Y-125341166D01*
X214700380Y-125198309D01*
X214700380Y-124960214D01*
X213795619Y-125912595D02*
X213748000Y-125960214D01*
X213700380Y-126055452D01*
X213700380Y-126293547D01*
X213748000Y-126388785D01*
X213795619Y-126436404D01*
X213890857Y-126484023D01*
X213986095Y-126484023D01*
X214128952Y-126436404D01*
X214700380Y-125864976D01*
X214700380Y-126484023D01*
X214700380Y-127436404D02*
X214700380Y-126864976D01*
X214700380Y-127150690D02*
X213700380Y-127150690D01*
X213843238Y-127055452D01*
X213938476Y-126960214D01*
X213986095Y-126864976D01*
G04 #@! TO.C,D22*
X233750380Y-124922114D02*
X232750380Y-124922114D01*
X232750380Y-125160209D01*
X232798000Y-125303066D01*
X232893238Y-125398304D01*
X232988476Y-125445923D01*
X233178952Y-125493542D01*
X233321809Y-125493542D01*
X233512285Y-125445923D01*
X233607523Y-125398304D01*
X233702761Y-125303066D01*
X233750380Y-125160209D01*
X233750380Y-124922114D01*
X232845619Y-125874495D02*
X232798000Y-125922114D01*
X232750380Y-126017352D01*
X232750380Y-126255447D01*
X232798000Y-126350685D01*
X232845619Y-126398304D01*
X232940857Y-126445923D01*
X233036095Y-126445923D01*
X233178952Y-126398304D01*
X233750380Y-125826876D01*
X233750380Y-126445923D01*
X232845619Y-126826876D02*
X232798000Y-126874495D01*
X232750380Y-126969733D01*
X232750380Y-127207828D01*
X232798000Y-127303066D01*
X232845619Y-127350685D01*
X232940857Y-127398304D01*
X233036095Y-127398304D01*
X233178952Y-127350685D01*
X233750380Y-126779257D01*
X233750380Y-127398304D01*
G04 #@! TO.C,D23*
X252800380Y-124947514D02*
X251800380Y-124947514D01*
X251800380Y-125185609D01*
X251848000Y-125328466D01*
X251943238Y-125423704D01*
X252038476Y-125471323D01*
X252228952Y-125518942D01*
X252371809Y-125518942D01*
X252562285Y-125471323D01*
X252657523Y-125423704D01*
X252752761Y-125328466D01*
X252800380Y-125185609D01*
X252800380Y-124947514D01*
X251895619Y-125899895D02*
X251848000Y-125947514D01*
X251800380Y-126042752D01*
X251800380Y-126280847D01*
X251848000Y-126376085D01*
X251895619Y-126423704D01*
X251990857Y-126471323D01*
X252086095Y-126471323D01*
X252228952Y-126423704D01*
X252800380Y-125852276D01*
X252800380Y-126471323D01*
X251800380Y-126804657D02*
X251800380Y-127423704D01*
X252181333Y-127090371D01*
X252181333Y-127233228D01*
X252228952Y-127328466D01*
X252276571Y-127376085D01*
X252371809Y-127423704D01*
X252609904Y-127423704D01*
X252705142Y-127376085D01*
X252752761Y-127328466D01*
X252800380Y-127233228D01*
X252800380Y-126947514D01*
X252752761Y-126852276D01*
X252705142Y-126804657D01*
G04 #@! TO.C,D24*
X271850380Y-125023714D02*
X270850380Y-125023714D01*
X270850380Y-125261809D01*
X270898000Y-125404666D01*
X270993238Y-125499904D01*
X271088476Y-125547523D01*
X271278952Y-125595142D01*
X271421809Y-125595142D01*
X271612285Y-125547523D01*
X271707523Y-125499904D01*
X271802761Y-125404666D01*
X271850380Y-125261809D01*
X271850380Y-125023714D01*
X270945619Y-125976095D02*
X270898000Y-126023714D01*
X270850380Y-126118952D01*
X270850380Y-126357047D01*
X270898000Y-126452285D01*
X270945619Y-126499904D01*
X271040857Y-126547523D01*
X271136095Y-126547523D01*
X271278952Y-126499904D01*
X271850380Y-125928476D01*
X271850380Y-126547523D01*
X271183714Y-127404666D02*
X271850380Y-127404666D01*
X270802761Y-127166571D02*
X271517047Y-126928476D01*
X271517047Y-127547523D01*
G04 #@! TO.C,D25*
X293694380Y-125023714D02*
X292694380Y-125023714D01*
X292694380Y-125261809D01*
X292742000Y-125404666D01*
X292837238Y-125499904D01*
X292932476Y-125547523D01*
X293122952Y-125595142D01*
X293265809Y-125595142D01*
X293456285Y-125547523D01*
X293551523Y-125499904D01*
X293646761Y-125404666D01*
X293694380Y-125261809D01*
X293694380Y-125023714D01*
X292789619Y-125976095D02*
X292742000Y-126023714D01*
X292694380Y-126118952D01*
X292694380Y-126357047D01*
X292742000Y-126452285D01*
X292789619Y-126499904D01*
X292884857Y-126547523D01*
X292980095Y-126547523D01*
X293122952Y-126499904D01*
X293694380Y-125928476D01*
X293694380Y-126547523D01*
X292694380Y-127452285D02*
X292694380Y-126976095D01*
X293170571Y-126928476D01*
X293122952Y-126976095D01*
X293075333Y-127071333D01*
X293075333Y-127309428D01*
X293122952Y-127404666D01*
X293170571Y-127452285D01*
X293265809Y-127499904D01*
X293503904Y-127499904D01*
X293599142Y-127452285D01*
X293646761Y-127404666D01*
X293694380Y-127309428D01*
X293694380Y-127071333D01*
X293646761Y-126976095D01*
X293599142Y-126928476D01*
G04 #@! TO.C,D26*
X309950380Y-124947514D02*
X308950380Y-124947514D01*
X308950380Y-125185609D01*
X308998000Y-125328466D01*
X309093238Y-125423704D01*
X309188476Y-125471323D01*
X309378952Y-125518942D01*
X309521809Y-125518942D01*
X309712285Y-125471323D01*
X309807523Y-125423704D01*
X309902761Y-125328466D01*
X309950380Y-125185609D01*
X309950380Y-124947514D01*
X309045619Y-125899895D02*
X308998000Y-125947514D01*
X308950380Y-126042752D01*
X308950380Y-126280847D01*
X308998000Y-126376085D01*
X309045619Y-126423704D01*
X309140857Y-126471323D01*
X309236095Y-126471323D01*
X309378952Y-126423704D01*
X309950380Y-125852276D01*
X309950380Y-126471323D01*
X308950380Y-127328466D02*
X308950380Y-127137990D01*
X308998000Y-127042752D01*
X309045619Y-126995133D01*
X309188476Y-126899895D01*
X309378952Y-126852276D01*
X309759904Y-126852276D01*
X309855142Y-126899895D01*
X309902761Y-126947514D01*
X309950380Y-127042752D01*
X309950380Y-127233228D01*
X309902761Y-127328466D01*
X309855142Y-127376085D01*
X309759904Y-127423704D01*
X309521809Y-127423704D01*
X309426571Y-127376085D01*
X309378952Y-127328466D01*
X309331333Y-127233228D01*
X309331333Y-127042752D01*
X309378952Y-126947514D01*
X309426571Y-126899895D01*
X309521809Y-126852276D01*
G04 #@! TO.C,D27*
X329000380Y-124934814D02*
X328000380Y-124934814D01*
X328000380Y-125172909D01*
X328048000Y-125315766D01*
X328143238Y-125411004D01*
X328238476Y-125458623D01*
X328428952Y-125506242D01*
X328571809Y-125506242D01*
X328762285Y-125458623D01*
X328857523Y-125411004D01*
X328952761Y-125315766D01*
X329000380Y-125172909D01*
X329000380Y-124934814D01*
X328095619Y-125887195D02*
X328048000Y-125934814D01*
X328000380Y-126030052D01*
X328000380Y-126268147D01*
X328048000Y-126363385D01*
X328095619Y-126411004D01*
X328190857Y-126458623D01*
X328286095Y-126458623D01*
X328428952Y-126411004D01*
X329000380Y-125839576D01*
X329000380Y-126458623D01*
X328000380Y-126791957D02*
X328000380Y-127458623D01*
X329000380Y-127030052D01*
G04 #@! TO.C,D28*
X95828380Y-144073714D02*
X94828380Y-144073714D01*
X94828380Y-144311809D01*
X94876000Y-144454666D01*
X94971238Y-144549904D01*
X95066476Y-144597523D01*
X95256952Y-144645142D01*
X95399809Y-144645142D01*
X95590285Y-144597523D01*
X95685523Y-144549904D01*
X95780761Y-144454666D01*
X95828380Y-144311809D01*
X95828380Y-144073714D01*
X94923619Y-145026095D02*
X94876000Y-145073714D01*
X94828380Y-145168952D01*
X94828380Y-145407047D01*
X94876000Y-145502285D01*
X94923619Y-145549904D01*
X95018857Y-145597523D01*
X95114095Y-145597523D01*
X95256952Y-145549904D01*
X95828380Y-144978476D01*
X95828380Y-145597523D01*
X95256952Y-146168952D02*
X95209333Y-146073714D01*
X95161714Y-146026095D01*
X95066476Y-145978476D01*
X95018857Y-145978476D01*
X94923619Y-146026095D01*
X94876000Y-146073714D01*
X94828380Y-146168952D01*
X94828380Y-146359428D01*
X94876000Y-146454666D01*
X94923619Y-146502285D01*
X95018857Y-146549904D01*
X95066476Y-146549904D01*
X95161714Y-146502285D01*
X95209333Y-146454666D01*
X95256952Y-146359428D01*
X95256952Y-146168952D01*
X95304571Y-146073714D01*
X95352190Y-146026095D01*
X95447428Y-145978476D01*
X95637904Y-145978476D01*
X95733142Y-146026095D01*
X95780761Y-146073714D01*
X95828380Y-146168952D01*
X95828380Y-146359428D01*
X95780761Y-146454666D01*
X95733142Y-146502285D01*
X95637904Y-146549904D01*
X95447428Y-146549904D01*
X95352190Y-146502285D01*
X95304571Y-146454666D01*
X95256952Y-146359428D01*
G04 #@! TO.C,D29*
X124276380Y-144073714D02*
X123276380Y-144073714D01*
X123276380Y-144311809D01*
X123324000Y-144454666D01*
X123419238Y-144549904D01*
X123514476Y-144597523D01*
X123704952Y-144645142D01*
X123847809Y-144645142D01*
X124038285Y-144597523D01*
X124133523Y-144549904D01*
X124228761Y-144454666D01*
X124276380Y-144311809D01*
X124276380Y-144073714D01*
X123371619Y-145026095D02*
X123324000Y-145073714D01*
X123276380Y-145168952D01*
X123276380Y-145407047D01*
X123324000Y-145502285D01*
X123371619Y-145549904D01*
X123466857Y-145597523D01*
X123562095Y-145597523D01*
X123704952Y-145549904D01*
X124276380Y-144978476D01*
X124276380Y-145597523D01*
X124276380Y-146073714D02*
X124276380Y-146264190D01*
X124228761Y-146359428D01*
X124181142Y-146407047D01*
X124038285Y-146502285D01*
X123847809Y-146549904D01*
X123466857Y-146549904D01*
X123371619Y-146502285D01*
X123324000Y-146454666D01*
X123276380Y-146359428D01*
X123276380Y-146168952D01*
X123324000Y-146073714D01*
X123371619Y-146026095D01*
X123466857Y-145978476D01*
X123704952Y-145978476D01*
X123800190Y-146026095D01*
X123847809Y-146073714D01*
X123895428Y-146168952D01*
X123895428Y-146359428D01*
X123847809Y-146454666D01*
X123800190Y-146502285D01*
X123704952Y-146549904D01*
G04 #@! TO.C,D30*
X143326380Y-144073714D02*
X142326380Y-144073714D01*
X142326380Y-144311809D01*
X142374000Y-144454666D01*
X142469238Y-144549904D01*
X142564476Y-144597523D01*
X142754952Y-144645142D01*
X142897809Y-144645142D01*
X143088285Y-144597523D01*
X143183523Y-144549904D01*
X143278761Y-144454666D01*
X143326380Y-144311809D01*
X143326380Y-144073714D01*
X142326380Y-144978476D02*
X142326380Y-145597523D01*
X142707333Y-145264190D01*
X142707333Y-145407047D01*
X142754952Y-145502285D01*
X142802571Y-145549904D01*
X142897809Y-145597523D01*
X143135904Y-145597523D01*
X143231142Y-145549904D01*
X143278761Y-145502285D01*
X143326380Y-145407047D01*
X143326380Y-145121333D01*
X143278761Y-145026095D01*
X143231142Y-144978476D01*
X142326380Y-146216571D02*
X142326380Y-146311809D01*
X142374000Y-146407047D01*
X142421619Y-146454666D01*
X142516857Y-146502285D01*
X142707333Y-146549904D01*
X142945428Y-146549904D01*
X143135904Y-146502285D01*
X143231142Y-146454666D01*
X143278761Y-146407047D01*
X143326380Y-146311809D01*
X143326380Y-146216571D01*
X143278761Y-146121333D01*
X143231142Y-146073714D01*
X143135904Y-146026095D01*
X142945428Y-145978476D01*
X142707333Y-145978476D01*
X142516857Y-146026095D01*
X142421619Y-146073714D01*
X142374000Y-146121333D01*
X142326380Y-146216571D01*
G04 #@! TO.C,D31*
X162376380Y-144073714D02*
X161376380Y-144073714D01*
X161376380Y-144311809D01*
X161424000Y-144454666D01*
X161519238Y-144549904D01*
X161614476Y-144597523D01*
X161804952Y-144645142D01*
X161947809Y-144645142D01*
X162138285Y-144597523D01*
X162233523Y-144549904D01*
X162328761Y-144454666D01*
X162376380Y-144311809D01*
X162376380Y-144073714D01*
X161376380Y-144978476D02*
X161376380Y-145597523D01*
X161757333Y-145264190D01*
X161757333Y-145407047D01*
X161804952Y-145502285D01*
X161852571Y-145549904D01*
X161947809Y-145597523D01*
X162185904Y-145597523D01*
X162281142Y-145549904D01*
X162328761Y-145502285D01*
X162376380Y-145407047D01*
X162376380Y-145121333D01*
X162328761Y-145026095D01*
X162281142Y-144978476D01*
X162376380Y-146549904D02*
X162376380Y-145978476D01*
X162376380Y-146264190D02*
X161376380Y-146264190D01*
X161519238Y-146168952D01*
X161614476Y-146073714D01*
X161662095Y-145978476D01*
G04 #@! TO.C,D32*
X181426380Y-144073714D02*
X180426380Y-144073714D01*
X180426380Y-144311809D01*
X180474000Y-144454666D01*
X180569238Y-144549904D01*
X180664476Y-144597523D01*
X180854952Y-144645142D01*
X180997809Y-144645142D01*
X181188285Y-144597523D01*
X181283523Y-144549904D01*
X181378761Y-144454666D01*
X181426380Y-144311809D01*
X181426380Y-144073714D01*
X180426380Y-144978476D02*
X180426380Y-145597523D01*
X180807333Y-145264190D01*
X180807333Y-145407047D01*
X180854952Y-145502285D01*
X180902571Y-145549904D01*
X180997809Y-145597523D01*
X181235904Y-145597523D01*
X181331142Y-145549904D01*
X181378761Y-145502285D01*
X181426380Y-145407047D01*
X181426380Y-145121333D01*
X181378761Y-145026095D01*
X181331142Y-144978476D01*
X180521619Y-145978476D02*
X180474000Y-146026095D01*
X180426380Y-146121333D01*
X180426380Y-146359428D01*
X180474000Y-146454666D01*
X180521619Y-146502285D01*
X180616857Y-146549904D01*
X180712095Y-146549904D01*
X180854952Y-146502285D01*
X181426380Y-145930857D01*
X181426380Y-146549904D01*
G04 #@! TO.C,D33*
X204540380Y-143565714D02*
X203540380Y-143565714D01*
X203540380Y-143803809D01*
X203588000Y-143946666D01*
X203683238Y-144041904D01*
X203778476Y-144089523D01*
X203968952Y-144137142D01*
X204111809Y-144137142D01*
X204302285Y-144089523D01*
X204397523Y-144041904D01*
X204492761Y-143946666D01*
X204540380Y-143803809D01*
X204540380Y-143565714D01*
X203540380Y-144470476D02*
X203540380Y-145089523D01*
X203921333Y-144756190D01*
X203921333Y-144899047D01*
X203968952Y-144994285D01*
X204016571Y-145041904D01*
X204111809Y-145089523D01*
X204349904Y-145089523D01*
X204445142Y-145041904D01*
X204492761Y-144994285D01*
X204540380Y-144899047D01*
X204540380Y-144613333D01*
X204492761Y-144518095D01*
X204445142Y-144470476D01*
X203540380Y-145422857D02*
X203540380Y-146041904D01*
X203921333Y-145708571D01*
X203921333Y-145851428D01*
X203968952Y-145946666D01*
X204016571Y-145994285D01*
X204111809Y-146041904D01*
X204349904Y-146041904D01*
X204445142Y-145994285D01*
X204492761Y-145946666D01*
X204540380Y-145851428D01*
X204540380Y-145565714D01*
X204492761Y-145470476D01*
X204445142Y-145422857D01*
G04 #@! TO.C,D34*
X219526380Y-143565714D02*
X218526380Y-143565714D01*
X218526380Y-143803809D01*
X218574000Y-143946666D01*
X218669238Y-144041904D01*
X218764476Y-144089523D01*
X218954952Y-144137142D01*
X219097809Y-144137142D01*
X219288285Y-144089523D01*
X219383523Y-144041904D01*
X219478761Y-143946666D01*
X219526380Y-143803809D01*
X219526380Y-143565714D01*
X218526380Y-144470476D02*
X218526380Y-145089523D01*
X218907333Y-144756190D01*
X218907333Y-144899047D01*
X218954952Y-144994285D01*
X219002571Y-145041904D01*
X219097809Y-145089523D01*
X219335904Y-145089523D01*
X219431142Y-145041904D01*
X219478761Y-144994285D01*
X219526380Y-144899047D01*
X219526380Y-144613333D01*
X219478761Y-144518095D01*
X219431142Y-144470476D01*
X218859714Y-145946666D02*
X219526380Y-145946666D01*
X218478761Y-145708571D02*
X219193047Y-145470476D01*
X219193047Y-146089523D01*
G04 #@! TO.C,D35*
X238576380Y-143819714D02*
X237576380Y-143819714D01*
X237576380Y-144057809D01*
X237624000Y-144200666D01*
X237719238Y-144295904D01*
X237814476Y-144343523D01*
X238004952Y-144391142D01*
X238147809Y-144391142D01*
X238338285Y-144343523D01*
X238433523Y-144295904D01*
X238528761Y-144200666D01*
X238576380Y-144057809D01*
X238576380Y-143819714D01*
X237576380Y-144724476D02*
X237576380Y-145343523D01*
X237957333Y-145010190D01*
X237957333Y-145153047D01*
X238004952Y-145248285D01*
X238052571Y-145295904D01*
X238147809Y-145343523D01*
X238385904Y-145343523D01*
X238481142Y-145295904D01*
X238528761Y-145248285D01*
X238576380Y-145153047D01*
X238576380Y-144867333D01*
X238528761Y-144772095D01*
X238481142Y-144724476D01*
X237576380Y-146248285D02*
X237576380Y-145772095D01*
X238052571Y-145724476D01*
X238004952Y-145772095D01*
X237957333Y-145867333D01*
X237957333Y-146105428D01*
X238004952Y-146200666D01*
X238052571Y-146248285D01*
X238147809Y-146295904D01*
X238385904Y-146295904D01*
X238481142Y-146248285D01*
X238528761Y-146200666D01*
X238576380Y-146105428D01*
X238576380Y-145867333D01*
X238528761Y-145772095D01*
X238481142Y-145724476D01*
G04 #@! TO.C,D36*
X257626380Y-143819714D02*
X256626380Y-143819714D01*
X256626380Y-144057809D01*
X256674000Y-144200666D01*
X256769238Y-144295904D01*
X256864476Y-144343523D01*
X257054952Y-144391142D01*
X257197809Y-144391142D01*
X257388285Y-144343523D01*
X257483523Y-144295904D01*
X257578761Y-144200666D01*
X257626380Y-144057809D01*
X257626380Y-143819714D01*
X256626380Y-144724476D02*
X256626380Y-145343523D01*
X257007333Y-145010190D01*
X257007333Y-145153047D01*
X257054952Y-145248285D01*
X257102571Y-145295904D01*
X257197809Y-145343523D01*
X257435904Y-145343523D01*
X257531142Y-145295904D01*
X257578761Y-145248285D01*
X257626380Y-145153047D01*
X257626380Y-144867333D01*
X257578761Y-144772095D01*
X257531142Y-144724476D01*
X256626380Y-146200666D02*
X256626380Y-146010190D01*
X256674000Y-145914952D01*
X256721619Y-145867333D01*
X256864476Y-145772095D01*
X257054952Y-145724476D01*
X257435904Y-145724476D01*
X257531142Y-145772095D01*
X257578761Y-145819714D01*
X257626380Y-145914952D01*
X257626380Y-146105428D01*
X257578761Y-146200666D01*
X257531142Y-146248285D01*
X257435904Y-146295904D01*
X257197809Y-146295904D01*
X257102571Y-146248285D01*
X257054952Y-146200666D01*
X257007333Y-146105428D01*
X257007333Y-145914952D01*
X257054952Y-145819714D01*
X257102571Y-145772095D01*
X257197809Y-145724476D01*
G04 #@! TO.C,D37*
X276676380Y-143819714D02*
X275676380Y-143819714D01*
X275676380Y-144057809D01*
X275724000Y-144200666D01*
X275819238Y-144295904D01*
X275914476Y-144343523D01*
X276104952Y-144391142D01*
X276247809Y-144391142D01*
X276438285Y-144343523D01*
X276533523Y-144295904D01*
X276628761Y-144200666D01*
X276676380Y-144057809D01*
X276676380Y-143819714D01*
X275676380Y-144724476D02*
X275676380Y-145343523D01*
X276057333Y-145010190D01*
X276057333Y-145153047D01*
X276104952Y-145248285D01*
X276152571Y-145295904D01*
X276247809Y-145343523D01*
X276485904Y-145343523D01*
X276581142Y-145295904D01*
X276628761Y-145248285D01*
X276676380Y-145153047D01*
X276676380Y-144867333D01*
X276628761Y-144772095D01*
X276581142Y-144724476D01*
X275676380Y-145676857D02*
X275676380Y-146343523D01*
X276676380Y-145914952D01*
G04 #@! TO.C,D38*
X295726380Y-143819714D02*
X294726380Y-143819714D01*
X294726380Y-144057809D01*
X294774000Y-144200666D01*
X294869238Y-144295904D01*
X294964476Y-144343523D01*
X295154952Y-144391142D01*
X295297809Y-144391142D01*
X295488285Y-144343523D01*
X295583523Y-144295904D01*
X295678761Y-144200666D01*
X295726380Y-144057809D01*
X295726380Y-143819714D01*
X294726380Y-144724476D02*
X294726380Y-145343523D01*
X295107333Y-145010190D01*
X295107333Y-145153047D01*
X295154952Y-145248285D01*
X295202571Y-145295904D01*
X295297809Y-145343523D01*
X295535904Y-145343523D01*
X295631142Y-145295904D01*
X295678761Y-145248285D01*
X295726380Y-145153047D01*
X295726380Y-144867333D01*
X295678761Y-144772095D01*
X295631142Y-144724476D01*
X295154952Y-145914952D02*
X295107333Y-145819714D01*
X295059714Y-145772095D01*
X294964476Y-145724476D01*
X294916857Y-145724476D01*
X294821619Y-145772095D01*
X294774000Y-145819714D01*
X294726380Y-145914952D01*
X294726380Y-146105428D01*
X294774000Y-146200666D01*
X294821619Y-146248285D01*
X294916857Y-146295904D01*
X294964476Y-146295904D01*
X295059714Y-146248285D01*
X295107333Y-146200666D01*
X295154952Y-146105428D01*
X295154952Y-145914952D01*
X295202571Y-145819714D01*
X295250190Y-145772095D01*
X295345428Y-145724476D01*
X295535904Y-145724476D01*
X295631142Y-145772095D01*
X295678761Y-145819714D01*
X295726380Y-145914952D01*
X295726380Y-146105428D01*
X295678761Y-146200666D01*
X295631142Y-146248285D01*
X295535904Y-146295904D01*
X295345428Y-146295904D01*
X295250190Y-146248285D01*
X295202571Y-146200666D01*
X295154952Y-146105428D01*
G04 #@! TO.C,D39*
X314776380Y-143819714D02*
X313776380Y-143819714D01*
X313776380Y-144057809D01*
X313824000Y-144200666D01*
X313919238Y-144295904D01*
X314014476Y-144343523D01*
X314204952Y-144391142D01*
X314347809Y-144391142D01*
X314538285Y-144343523D01*
X314633523Y-144295904D01*
X314728761Y-144200666D01*
X314776380Y-144057809D01*
X314776380Y-143819714D01*
X313776380Y-144724476D02*
X313776380Y-145343523D01*
X314157333Y-145010190D01*
X314157333Y-145153047D01*
X314204952Y-145248285D01*
X314252571Y-145295904D01*
X314347809Y-145343523D01*
X314585904Y-145343523D01*
X314681142Y-145295904D01*
X314728761Y-145248285D01*
X314776380Y-145153047D01*
X314776380Y-144867333D01*
X314728761Y-144772095D01*
X314681142Y-144724476D01*
X314776380Y-145819714D02*
X314776380Y-146010190D01*
X314728761Y-146105428D01*
X314681142Y-146153047D01*
X314538285Y-146248285D01*
X314347809Y-146295904D01*
X313966857Y-146295904D01*
X313871619Y-146248285D01*
X313824000Y-146200666D01*
X313776380Y-146105428D01*
X313776380Y-145914952D01*
X313824000Y-145819714D01*
X313871619Y-145772095D01*
X313966857Y-145724476D01*
X314204952Y-145724476D01*
X314300190Y-145772095D01*
X314347809Y-145819714D01*
X314395428Y-145914952D01*
X314395428Y-146105428D01*
X314347809Y-146200666D01*
X314300190Y-146248285D01*
X314204952Y-146295904D01*
G04 #@! TO.C,D40*
X333826380Y-143819714D02*
X332826380Y-143819714D01*
X332826380Y-144057809D01*
X332874000Y-144200666D01*
X332969238Y-144295904D01*
X333064476Y-144343523D01*
X333254952Y-144391142D01*
X333397809Y-144391142D01*
X333588285Y-144343523D01*
X333683523Y-144295904D01*
X333778761Y-144200666D01*
X333826380Y-144057809D01*
X333826380Y-143819714D01*
X333159714Y-145248285D02*
X333826380Y-145248285D01*
X332778761Y-145010190D02*
X333493047Y-144772095D01*
X333493047Y-145391142D01*
X332826380Y-145962571D02*
X332826380Y-146057809D01*
X332874000Y-146153047D01*
X332921619Y-146200666D01*
X333016857Y-146248285D01*
X333207333Y-146295904D01*
X333445428Y-146295904D01*
X333635904Y-146248285D01*
X333731142Y-146200666D01*
X333778761Y-146153047D01*
X333826380Y-146057809D01*
X333826380Y-145962571D01*
X333778761Y-145867333D01*
X333731142Y-145819714D01*
X333635904Y-145772095D01*
X333445428Y-145724476D01*
X333207333Y-145724476D01*
X333016857Y-145772095D01*
X332921619Y-145819714D01*
X332874000Y-145867333D01*
X332826380Y-145962571D01*
G04 #@! TO.C,D41*
X91002380Y-163047514D02*
X90002380Y-163047514D01*
X90002380Y-163285609D01*
X90050000Y-163428466D01*
X90145238Y-163523704D01*
X90240476Y-163571323D01*
X90430952Y-163618942D01*
X90573809Y-163618942D01*
X90764285Y-163571323D01*
X90859523Y-163523704D01*
X90954761Y-163428466D01*
X91002380Y-163285609D01*
X91002380Y-163047514D01*
X90335714Y-164476085D02*
X91002380Y-164476085D01*
X89954761Y-164237990D02*
X90669047Y-163999895D01*
X90669047Y-164618942D01*
X91002380Y-165523704D02*
X91002380Y-164952276D01*
X91002380Y-165237990D02*
X90002380Y-165237990D01*
X90145238Y-165142752D01*
X90240476Y-165047514D01*
X90288095Y-164952276D01*
G04 #@! TO.C,D42*
X114624380Y-163047514D02*
X113624380Y-163047514D01*
X113624380Y-163285609D01*
X113672000Y-163428466D01*
X113767238Y-163523704D01*
X113862476Y-163571323D01*
X114052952Y-163618942D01*
X114195809Y-163618942D01*
X114386285Y-163571323D01*
X114481523Y-163523704D01*
X114576761Y-163428466D01*
X114624380Y-163285609D01*
X114624380Y-163047514D01*
X113957714Y-164476085D02*
X114624380Y-164476085D01*
X113576761Y-164237990D02*
X114291047Y-163999895D01*
X114291047Y-164618942D01*
X113719619Y-164952276D02*
X113672000Y-164999895D01*
X113624380Y-165095133D01*
X113624380Y-165333228D01*
X113672000Y-165428466D01*
X113719619Y-165476085D01*
X113814857Y-165523704D01*
X113910095Y-165523704D01*
X114052952Y-165476085D01*
X114624380Y-164904657D01*
X114624380Y-165523704D01*
G04 #@! TO.C,D43*
X133928380Y-163034814D02*
X132928380Y-163034814D01*
X132928380Y-163272909D01*
X132976000Y-163415766D01*
X133071238Y-163511004D01*
X133166476Y-163558623D01*
X133356952Y-163606242D01*
X133499809Y-163606242D01*
X133690285Y-163558623D01*
X133785523Y-163511004D01*
X133880761Y-163415766D01*
X133928380Y-163272909D01*
X133928380Y-163034814D01*
X133261714Y-164463385D02*
X133928380Y-164463385D01*
X132880761Y-164225290D02*
X133595047Y-163987195D01*
X133595047Y-164606242D01*
X132928380Y-164891957D02*
X132928380Y-165511004D01*
X133309333Y-165177671D01*
X133309333Y-165320528D01*
X133356952Y-165415766D01*
X133404571Y-165463385D01*
X133499809Y-165511004D01*
X133737904Y-165511004D01*
X133833142Y-165463385D01*
X133880761Y-165415766D01*
X133928380Y-165320528D01*
X133928380Y-165034814D01*
X133880761Y-164939576D01*
X133833142Y-164891957D01*
G04 #@! TO.C,D44*
X152978380Y-163034814D02*
X151978380Y-163034814D01*
X151978380Y-163272909D01*
X152026000Y-163415766D01*
X152121238Y-163511004D01*
X152216476Y-163558623D01*
X152406952Y-163606242D01*
X152549809Y-163606242D01*
X152740285Y-163558623D01*
X152835523Y-163511004D01*
X152930761Y-163415766D01*
X152978380Y-163272909D01*
X152978380Y-163034814D01*
X152311714Y-164463385D02*
X152978380Y-164463385D01*
X151930761Y-164225290D02*
X152645047Y-163987195D01*
X152645047Y-164606242D01*
X152311714Y-165415766D02*
X152978380Y-165415766D01*
X151930761Y-165177671D02*
X152645047Y-164939576D01*
X152645047Y-165558623D01*
G04 #@! TO.C,D45*
X172028380Y-163047514D02*
X171028380Y-163047514D01*
X171028380Y-163285609D01*
X171076000Y-163428466D01*
X171171238Y-163523704D01*
X171266476Y-163571323D01*
X171456952Y-163618942D01*
X171599809Y-163618942D01*
X171790285Y-163571323D01*
X171885523Y-163523704D01*
X171980761Y-163428466D01*
X172028380Y-163285609D01*
X172028380Y-163047514D01*
X171361714Y-164476085D02*
X172028380Y-164476085D01*
X170980761Y-164237990D02*
X171695047Y-163999895D01*
X171695047Y-164618942D01*
X171028380Y-165476085D02*
X171028380Y-164999895D01*
X171504571Y-164952276D01*
X171456952Y-164999895D01*
X171409333Y-165095133D01*
X171409333Y-165333228D01*
X171456952Y-165428466D01*
X171504571Y-165476085D01*
X171599809Y-165523704D01*
X171837904Y-165523704D01*
X171933142Y-165476085D01*
X171980761Y-165428466D01*
X172028380Y-165333228D01*
X172028380Y-165095133D01*
X171980761Y-164999895D01*
X171933142Y-164952276D01*
G04 #@! TO.C,D46*
X191078380Y-163123714D02*
X190078380Y-163123714D01*
X190078380Y-163361809D01*
X190126000Y-163504666D01*
X190221238Y-163599904D01*
X190316476Y-163647523D01*
X190506952Y-163695142D01*
X190649809Y-163695142D01*
X190840285Y-163647523D01*
X190935523Y-163599904D01*
X191030761Y-163504666D01*
X191078380Y-163361809D01*
X191078380Y-163123714D01*
X190411714Y-164552285D02*
X191078380Y-164552285D01*
X190030761Y-164314190D02*
X190745047Y-164076095D01*
X190745047Y-164695142D01*
X190078380Y-165504666D02*
X190078380Y-165314190D01*
X190126000Y-165218952D01*
X190173619Y-165171333D01*
X190316476Y-165076095D01*
X190506952Y-165028476D01*
X190887904Y-165028476D01*
X190983142Y-165076095D01*
X191030761Y-165123714D01*
X191078380Y-165218952D01*
X191078380Y-165409428D01*
X191030761Y-165504666D01*
X190983142Y-165552285D01*
X190887904Y-165599904D01*
X190649809Y-165599904D01*
X190554571Y-165552285D01*
X190506952Y-165504666D01*
X190459333Y-165409428D01*
X190459333Y-165218952D01*
X190506952Y-165123714D01*
X190554571Y-165076095D01*
X190649809Y-165028476D01*
G04 #@! TO.C,D47*
X210128380Y-163047514D02*
X209128380Y-163047514D01*
X209128380Y-163285609D01*
X209176000Y-163428466D01*
X209271238Y-163523704D01*
X209366476Y-163571323D01*
X209556952Y-163618942D01*
X209699809Y-163618942D01*
X209890285Y-163571323D01*
X209985523Y-163523704D01*
X210080761Y-163428466D01*
X210128380Y-163285609D01*
X210128380Y-163047514D01*
X209461714Y-164476085D02*
X210128380Y-164476085D01*
X209080761Y-164237990D02*
X209795047Y-163999895D01*
X209795047Y-164618942D01*
X209128380Y-164904657D02*
X209128380Y-165571323D01*
X210128380Y-165142752D01*
G04 #@! TO.C,D48*
X229178380Y-163123714D02*
X228178380Y-163123714D01*
X228178380Y-163361809D01*
X228226000Y-163504666D01*
X228321238Y-163599904D01*
X228416476Y-163647523D01*
X228606952Y-163695142D01*
X228749809Y-163695142D01*
X228940285Y-163647523D01*
X229035523Y-163599904D01*
X229130761Y-163504666D01*
X229178380Y-163361809D01*
X229178380Y-163123714D01*
X228511714Y-164552285D02*
X229178380Y-164552285D01*
X228130761Y-164314190D02*
X228845047Y-164076095D01*
X228845047Y-164695142D01*
X228606952Y-165218952D02*
X228559333Y-165123714D01*
X228511714Y-165076095D01*
X228416476Y-165028476D01*
X228368857Y-165028476D01*
X228273619Y-165076095D01*
X228226000Y-165123714D01*
X228178380Y-165218952D01*
X228178380Y-165409428D01*
X228226000Y-165504666D01*
X228273619Y-165552285D01*
X228368857Y-165599904D01*
X228416476Y-165599904D01*
X228511714Y-165552285D01*
X228559333Y-165504666D01*
X228606952Y-165409428D01*
X228606952Y-165218952D01*
X228654571Y-165123714D01*
X228702190Y-165076095D01*
X228797428Y-165028476D01*
X228987904Y-165028476D01*
X229083142Y-165076095D01*
X229130761Y-165123714D01*
X229178380Y-165218952D01*
X229178380Y-165409428D01*
X229130761Y-165504666D01*
X229083142Y-165552285D01*
X228987904Y-165599904D01*
X228797428Y-165599904D01*
X228702190Y-165552285D01*
X228654571Y-165504666D01*
X228606952Y-165409428D01*
G04 #@! TO.C,D49*
X248228380Y-163123714D02*
X247228380Y-163123714D01*
X247228380Y-163361809D01*
X247276000Y-163504666D01*
X247371238Y-163599904D01*
X247466476Y-163647523D01*
X247656952Y-163695142D01*
X247799809Y-163695142D01*
X247990285Y-163647523D01*
X248085523Y-163599904D01*
X248180761Y-163504666D01*
X248228380Y-163361809D01*
X248228380Y-163123714D01*
X247561714Y-164552285D02*
X248228380Y-164552285D01*
X247180761Y-164314190D02*
X247895047Y-164076095D01*
X247895047Y-164695142D01*
X248228380Y-165123714D02*
X248228380Y-165314190D01*
X248180761Y-165409428D01*
X248133142Y-165457047D01*
X247990285Y-165552285D01*
X247799809Y-165599904D01*
X247418857Y-165599904D01*
X247323619Y-165552285D01*
X247276000Y-165504666D01*
X247228380Y-165409428D01*
X247228380Y-165218952D01*
X247276000Y-165123714D01*
X247323619Y-165076095D01*
X247418857Y-165028476D01*
X247656952Y-165028476D01*
X247752190Y-165076095D01*
X247799809Y-165123714D01*
X247847428Y-165218952D01*
X247847428Y-165409428D01*
X247799809Y-165504666D01*
X247752190Y-165552285D01*
X247656952Y-165599904D01*
G04 #@! TO.C,D50*
X267278380Y-163047514D02*
X266278380Y-163047514D01*
X266278380Y-163285609D01*
X266326000Y-163428466D01*
X266421238Y-163523704D01*
X266516476Y-163571323D01*
X266706952Y-163618942D01*
X266849809Y-163618942D01*
X267040285Y-163571323D01*
X267135523Y-163523704D01*
X267230761Y-163428466D01*
X267278380Y-163285609D01*
X267278380Y-163047514D01*
X266278380Y-164523704D02*
X266278380Y-164047514D01*
X266754571Y-163999895D01*
X266706952Y-164047514D01*
X266659333Y-164142752D01*
X266659333Y-164380847D01*
X266706952Y-164476085D01*
X266754571Y-164523704D01*
X266849809Y-164571323D01*
X267087904Y-164571323D01*
X267183142Y-164523704D01*
X267230761Y-164476085D01*
X267278380Y-164380847D01*
X267278380Y-164142752D01*
X267230761Y-164047514D01*
X267183142Y-163999895D01*
X266278380Y-165190371D02*
X266278380Y-165285609D01*
X266326000Y-165380847D01*
X266373619Y-165428466D01*
X266468857Y-165476085D01*
X266659333Y-165523704D01*
X266897428Y-165523704D01*
X267087904Y-165476085D01*
X267183142Y-165428466D01*
X267230761Y-165380847D01*
X267278380Y-165285609D01*
X267278380Y-165190371D01*
X267230761Y-165095133D01*
X267183142Y-165047514D01*
X267087904Y-164999895D01*
X266897428Y-164952276D01*
X266659333Y-164952276D01*
X266468857Y-164999895D01*
X266373619Y-165047514D01*
X266326000Y-165095133D01*
X266278380Y-165190371D01*
G04 #@! TO.C,D51*
X286328380Y-163072914D02*
X285328380Y-163072914D01*
X285328380Y-163311009D01*
X285376000Y-163453866D01*
X285471238Y-163549104D01*
X285566476Y-163596723D01*
X285756952Y-163644342D01*
X285899809Y-163644342D01*
X286090285Y-163596723D01*
X286185523Y-163549104D01*
X286280761Y-163453866D01*
X286328380Y-163311009D01*
X286328380Y-163072914D01*
X285328380Y-164549104D02*
X285328380Y-164072914D01*
X285804571Y-164025295D01*
X285756952Y-164072914D01*
X285709333Y-164168152D01*
X285709333Y-164406247D01*
X285756952Y-164501485D01*
X285804571Y-164549104D01*
X285899809Y-164596723D01*
X286137904Y-164596723D01*
X286233142Y-164549104D01*
X286280761Y-164501485D01*
X286328380Y-164406247D01*
X286328380Y-164168152D01*
X286280761Y-164072914D01*
X286233142Y-164025295D01*
X286328380Y-165549104D02*
X286328380Y-164977676D01*
X286328380Y-165263390D02*
X285328380Y-165263390D01*
X285471238Y-165168152D01*
X285566476Y-165072914D01*
X285614095Y-164977676D01*
G04 #@! TO.C,D52*
X305124380Y-163123714D02*
X304124380Y-163123714D01*
X304124380Y-163361809D01*
X304172000Y-163504666D01*
X304267238Y-163599904D01*
X304362476Y-163647523D01*
X304552952Y-163695142D01*
X304695809Y-163695142D01*
X304886285Y-163647523D01*
X304981523Y-163599904D01*
X305076761Y-163504666D01*
X305124380Y-163361809D01*
X305124380Y-163123714D01*
X304124380Y-164599904D02*
X304124380Y-164123714D01*
X304600571Y-164076095D01*
X304552952Y-164123714D01*
X304505333Y-164218952D01*
X304505333Y-164457047D01*
X304552952Y-164552285D01*
X304600571Y-164599904D01*
X304695809Y-164647523D01*
X304933904Y-164647523D01*
X305029142Y-164599904D01*
X305076761Y-164552285D01*
X305124380Y-164457047D01*
X305124380Y-164218952D01*
X305076761Y-164123714D01*
X305029142Y-164076095D01*
X304219619Y-165028476D02*
X304172000Y-165076095D01*
X304124380Y-165171333D01*
X304124380Y-165409428D01*
X304172000Y-165504666D01*
X304219619Y-165552285D01*
X304314857Y-165599904D01*
X304410095Y-165599904D01*
X304552952Y-165552285D01*
X305124380Y-164980857D01*
X305124380Y-165599904D01*
G04 #@! TO.C,D53*
X324428380Y-163235714D02*
X323428380Y-163235714D01*
X323428380Y-163473809D01*
X323476000Y-163616666D01*
X323571238Y-163711904D01*
X323666476Y-163759523D01*
X323856952Y-163807142D01*
X323999809Y-163807142D01*
X324190285Y-163759523D01*
X324285523Y-163711904D01*
X324380761Y-163616666D01*
X324428380Y-163473809D01*
X324428380Y-163235714D01*
X323428380Y-164711904D02*
X323428380Y-164235714D01*
X323904571Y-164188095D01*
X323856952Y-164235714D01*
X323809333Y-164330952D01*
X323809333Y-164569047D01*
X323856952Y-164664285D01*
X323904571Y-164711904D01*
X323999809Y-164759523D01*
X324237904Y-164759523D01*
X324333142Y-164711904D01*
X324380761Y-164664285D01*
X324428380Y-164569047D01*
X324428380Y-164330952D01*
X324380761Y-164235714D01*
X324333142Y-164188095D01*
X323428380Y-165092857D02*
X323428380Y-165711904D01*
X323809333Y-165378571D01*
X323809333Y-165521428D01*
X323856952Y-165616666D01*
X323904571Y-165664285D01*
X323999809Y-165711904D01*
X324237904Y-165711904D01*
X324333142Y-165664285D01*
X324380761Y-165616666D01*
X324428380Y-165521428D01*
X324428380Y-165235714D01*
X324380761Y-165140476D01*
X324333142Y-165092857D01*
G04 #@! TO.C,D54*
X86430380Y-181919714D02*
X85430380Y-181919714D01*
X85430380Y-182157809D01*
X85478000Y-182300666D01*
X85573238Y-182395904D01*
X85668476Y-182443523D01*
X85858952Y-182491142D01*
X86001809Y-182491142D01*
X86192285Y-182443523D01*
X86287523Y-182395904D01*
X86382761Y-182300666D01*
X86430380Y-182157809D01*
X86430380Y-181919714D01*
X85430380Y-183395904D02*
X85430380Y-182919714D01*
X85906571Y-182872095D01*
X85858952Y-182919714D01*
X85811333Y-183014952D01*
X85811333Y-183253047D01*
X85858952Y-183348285D01*
X85906571Y-183395904D01*
X86001809Y-183443523D01*
X86239904Y-183443523D01*
X86335142Y-183395904D01*
X86382761Y-183348285D01*
X86430380Y-183253047D01*
X86430380Y-183014952D01*
X86382761Y-182919714D01*
X86335142Y-182872095D01*
X85763714Y-184300666D02*
X86430380Y-184300666D01*
X85382761Y-184062571D02*
X86097047Y-183824476D01*
X86097047Y-184443523D01*
G04 #@! TO.C,D55*
X117164380Y-181919714D02*
X116164380Y-181919714D01*
X116164380Y-182157809D01*
X116212000Y-182300666D01*
X116307238Y-182395904D01*
X116402476Y-182443523D01*
X116592952Y-182491142D01*
X116735809Y-182491142D01*
X116926285Y-182443523D01*
X117021523Y-182395904D01*
X117116761Y-182300666D01*
X117164380Y-182157809D01*
X117164380Y-181919714D01*
X116164380Y-183395904D02*
X116164380Y-182919714D01*
X116640571Y-182872095D01*
X116592952Y-182919714D01*
X116545333Y-183014952D01*
X116545333Y-183253047D01*
X116592952Y-183348285D01*
X116640571Y-183395904D01*
X116735809Y-183443523D01*
X116973904Y-183443523D01*
X117069142Y-183395904D01*
X117116761Y-183348285D01*
X117164380Y-183253047D01*
X117164380Y-183014952D01*
X117116761Y-182919714D01*
X117069142Y-182872095D01*
X116164380Y-184348285D02*
X116164380Y-183872095D01*
X116640571Y-183824476D01*
X116592952Y-183872095D01*
X116545333Y-183967333D01*
X116545333Y-184205428D01*
X116592952Y-184300666D01*
X116640571Y-184348285D01*
X116735809Y-184395904D01*
X116973904Y-184395904D01*
X117069142Y-184348285D01*
X117116761Y-184300666D01*
X117164380Y-184205428D01*
X117164380Y-183967333D01*
X117116761Y-183872095D01*
X117069142Y-183824476D01*
G04 #@! TO.C,D56*
X143326380Y-182072114D02*
X142326380Y-182072114D01*
X142326380Y-182310209D01*
X142374000Y-182453066D01*
X142469238Y-182548304D01*
X142564476Y-182595923D01*
X142754952Y-182643542D01*
X142897809Y-182643542D01*
X143088285Y-182595923D01*
X143183523Y-182548304D01*
X143278761Y-182453066D01*
X143326380Y-182310209D01*
X143326380Y-182072114D01*
X142326380Y-183548304D02*
X142326380Y-183072114D01*
X142802571Y-183024495D01*
X142754952Y-183072114D01*
X142707333Y-183167352D01*
X142707333Y-183405447D01*
X142754952Y-183500685D01*
X142802571Y-183548304D01*
X142897809Y-183595923D01*
X143135904Y-183595923D01*
X143231142Y-183548304D01*
X143278761Y-183500685D01*
X143326380Y-183405447D01*
X143326380Y-183167352D01*
X143278761Y-183072114D01*
X143231142Y-183024495D01*
X142326380Y-184453066D02*
X142326380Y-184262590D01*
X142374000Y-184167352D01*
X142421619Y-184119733D01*
X142564476Y-184024495D01*
X142754952Y-183976876D01*
X143135904Y-183976876D01*
X143231142Y-184024495D01*
X143278761Y-184072114D01*
X143326380Y-184167352D01*
X143326380Y-184357828D01*
X143278761Y-184453066D01*
X143231142Y-184500685D01*
X143135904Y-184548304D01*
X142897809Y-184548304D01*
X142802571Y-184500685D01*
X142754952Y-184453066D01*
X142707333Y-184357828D01*
X142707333Y-184167352D01*
X142754952Y-184072114D01*
X142802571Y-184024495D01*
X142897809Y-183976876D01*
G04 #@! TO.C,D57*
X219526380Y-182072114D02*
X218526380Y-182072114D01*
X218526380Y-182310209D01*
X218574000Y-182453066D01*
X218669238Y-182548304D01*
X218764476Y-182595923D01*
X218954952Y-182643542D01*
X219097809Y-182643542D01*
X219288285Y-182595923D01*
X219383523Y-182548304D01*
X219478761Y-182453066D01*
X219526380Y-182310209D01*
X219526380Y-182072114D01*
X218526380Y-183548304D02*
X218526380Y-183072114D01*
X219002571Y-183024495D01*
X218954952Y-183072114D01*
X218907333Y-183167352D01*
X218907333Y-183405447D01*
X218954952Y-183500685D01*
X219002571Y-183548304D01*
X219097809Y-183595923D01*
X219335904Y-183595923D01*
X219431142Y-183548304D01*
X219478761Y-183500685D01*
X219526380Y-183405447D01*
X219526380Y-183167352D01*
X219478761Y-183072114D01*
X219431142Y-183024495D01*
X218526380Y-183929257D02*
X218526380Y-184595923D01*
X219526380Y-184167352D01*
G04 #@! TO.C,D58*
X295980380Y-182173714D02*
X294980380Y-182173714D01*
X294980380Y-182411809D01*
X295028000Y-182554666D01*
X295123238Y-182649904D01*
X295218476Y-182697523D01*
X295408952Y-182745142D01*
X295551809Y-182745142D01*
X295742285Y-182697523D01*
X295837523Y-182649904D01*
X295932761Y-182554666D01*
X295980380Y-182411809D01*
X295980380Y-182173714D01*
X294980380Y-183649904D02*
X294980380Y-183173714D01*
X295456571Y-183126095D01*
X295408952Y-183173714D01*
X295361333Y-183268952D01*
X295361333Y-183507047D01*
X295408952Y-183602285D01*
X295456571Y-183649904D01*
X295551809Y-183697523D01*
X295789904Y-183697523D01*
X295885142Y-183649904D01*
X295932761Y-183602285D01*
X295980380Y-183507047D01*
X295980380Y-183268952D01*
X295932761Y-183173714D01*
X295885142Y-183126095D01*
X295408952Y-184268952D02*
X295361333Y-184173714D01*
X295313714Y-184126095D01*
X295218476Y-184078476D01*
X295170857Y-184078476D01*
X295075619Y-184126095D01*
X295028000Y-184173714D01*
X294980380Y-184268952D01*
X294980380Y-184459428D01*
X295028000Y-184554666D01*
X295075619Y-184602285D01*
X295170857Y-184649904D01*
X295218476Y-184649904D01*
X295313714Y-184602285D01*
X295361333Y-184554666D01*
X295408952Y-184459428D01*
X295408952Y-184268952D01*
X295456571Y-184173714D01*
X295504190Y-184126095D01*
X295599428Y-184078476D01*
X295789904Y-184078476D01*
X295885142Y-184126095D01*
X295932761Y-184173714D01*
X295980380Y-184268952D01*
X295980380Y-184459428D01*
X295932761Y-184554666D01*
X295885142Y-184602285D01*
X295789904Y-184649904D01*
X295599428Y-184649904D01*
X295504190Y-184602285D01*
X295456571Y-184554666D01*
X295408952Y-184459428D01*
G04 #@! TO.C,D59*
X322142380Y-182173714D02*
X321142380Y-182173714D01*
X321142380Y-182411809D01*
X321190000Y-182554666D01*
X321285238Y-182649904D01*
X321380476Y-182697523D01*
X321570952Y-182745142D01*
X321713809Y-182745142D01*
X321904285Y-182697523D01*
X321999523Y-182649904D01*
X322094761Y-182554666D01*
X322142380Y-182411809D01*
X322142380Y-182173714D01*
X321142380Y-183649904D02*
X321142380Y-183173714D01*
X321618571Y-183126095D01*
X321570952Y-183173714D01*
X321523333Y-183268952D01*
X321523333Y-183507047D01*
X321570952Y-183602285D01*
X321618571Y-183649904D01*
X321713809Y-183697523D01*
X321951904Y-183697523D01*
X322047142Y-183649904D01*
X322094761Y-183602285D01*
X322142380Y-183507047D01*
X322142380Y-183268952D01*
X322094761Y-183173714D01*
X322047142Y-183126095D01*
X322142380Y-184173714D02*
X322142380Y-184364190D01*
X322094761Y-184459428D01*
X322047142Y-184507047D01*
X321904285Y-184602285D01*
X321713809Y-184649904D01*
X321332857Y-184649904D01*
X321237619Y-184602285D01*
X321190000Y-184554666D01*
X321142380Y-184459428D01*
X321142380Y-184268952D01*
X321190000Y-184173714D01*
X321237619Y-184126095D01*
X321332857Y-184078476D01*
X321570952Y-184078476D01*
X321666190Y-184126095D01*
X321713809Y-184173714D01*
X321761428Y-184268952D01*
X321761428Y-184459428D01*
X321713809Y-184554666D01*
X321666190Y-184602285D01*
X321570952Y-184649904D01*
G04 #@! TO.C,D60*
X343478380Y-182173714D02*
X342478380Y-182173714D01*
X342478380Y-182411809D01*
X342526000Y-182554666D01*
X342621238Y-182649904D01*
X342716476Y-182697523D01*
X342906952Y-182745142D01*
X343049809Y-182745142D01*
X343240285Y-182697523D01*
X343335523Y-182649904D01*
X343430761Y-182554666D01*
X343478380Y-182411809D01*
X343478380Y-182173714D01*
X342478380Y-183602285D02*
X342478380Y-183411809D01*
X342526000Y-183316571D01*
X342573619Y-183268952D01*
X342716476Y-183173714D01*
X342906952Y-183126095D01*
X343287904Y-183126095D01*
X343383142Y-183173714D01*
X343430761Y-183221333D01*
X343478380Y-183316571D01*
X343478380Y-183507047D01*
X343430761Y-183602285D01*
X343383142Y-183649904D01*
X343287904Y-183697523D01*
X343049809Y-183697523D01*
X342954571Y-183649904D01*
X342906952Y-183602285D01*
X342859333Y-183507047D01*
X342859333Y-183316571D01*
X342906952Y-183221333D01*
X342954571Y-183173714D01*
X343049809Y-183126095D01*
X342478380Y-184316571D02*
X342478380Y-184411809D01*
X342526000Y-184507047D01*
X342573619Y-184554666D01*
X342668857Y-184602285D01*
X342859333Y-184649904D01*
X343097428Y-184649904D01*
X343287904Y-184602285D01*
X343383142Y-184554666D01*
X343430761Y-184507047D01*
X343478380Y-184411809D01*
X343478380Y-184316571D01*
X343430761Y-184221333D01*
X343383142Y-184173714D01*
X343287904Y-184126095D01*
X343097428Y-184078476D01*
X342859333Y-184078476D01*
X342668857Y-184126095D01*
X342573619Y-184173714D01*
X342526000Y-184221333D01*
X342478380Y-184316571D01*
G04 #@! TO.C,D61*
X346526380Y-141533714D02*
X345526380Y-141533714D01*
X345526380Y-141771809D01*
X345574000Y-141914666D01*
X345669238Y-142009904D01*
X345764476Y-142057523D01*
X345954952Y-142105142D01*
X346097809Y-142105142D01*
X346288285Y-142057523D01*
X346383523Y-142009904D01*
X346478761Y-141914666D01*
X346526380Y-141771809D01*
X346526380Y-141533714D01*
X345526380Y-142962285D02*
X345526380Y-142771809D01*
X345574000Y-142676571D01*
X345621619Y-142628952D01*
X345764476Y-142533714D01*
X345954952Y-142486095D01*
X346335904Y-142486095D01*
X346431142Y-142533714D01*
X346478761Y-142581333D01*
X346526380Y-142676571D01*
X346526380Y-142867047D01*
X346478761Y-142962285D01*
X346431142Y-143009904D01*
X346335904Y-143057523D01*
X346097809Y-143057523D01*
X346002571Y-143009904D01*
X345954952Y-142962285D01*
X345907333Y-142867047D01*
X345907333Y-142676571D01*
X345954952Y-142581333D01*
X346002571Y-142533714D01*
X346097809Y-142486095D01*
X346526380Y-144009904D02*
X346526380Y-143438476D01*
X346526380Y-143724190D02*
X345526380Y-143724190D01*
X345669238Y-143628952D01*
X345764476Y-143533714D01*
X345812095Y-143438476D01*
G04 #@! TO.C,D62*
X380127380Y-105860714D02*
X379127380Y-105860714D01*
X379127380Y-106098809D01*
X379175000Y-106241666D01*
X379270238Y-106336904D01*
X379365476Y-106384523D01*
X379555952Y-106432142D01*
X379698809Y-106432142D01*
X379889285Y-106384523D01*
X379984523Y-106336904D01*
X380079761Y-106241666D01*
X380127380Y-106098809D01*
X380127380Y-105860714D01*
X379127380Y-107289285D02*
X379127380Y-107098809D01*
X379175000Y-107003571D01*
X379222619Y-106955952D01*
X379365476Y-106860714D01*
X379555952Y-106813095D01*
X379936904Y-106813095D01*
X380032142Y-106860714D01*
X380079761Y-106908333D01*
X380127380Y-107003571D01*
X380127380Y-107194047D01*
X380079761Y-107289285D01*
X380032142Y-107336904D01*
X379936904Y-107384523D01*
X379698809Y-107384523D01*
X379603571Y-107336904D01*
X379555952Y-107289285D01*
X379508333Y-107194047D01*
X379508333Y-107003571D01*
X379555952Y-106908333D01*
X379603571Y-106860714D01*
X379698809Y-106813095D01*
X379222619Y-107765476D02*
X379175000Y-107813095D01*
X379127380Y-107908333D01*
X379127380Y-108146428D01*
X379175000Y-108241666D01*
X379222619Y-108289285D01*
X379317857Y-108336904D01*
X379413095Y-108336904D01*
X379555952Y-108289285D01*
X380127380Y-107717857D01*
X380127380Y-108336904D01*
G04 #@! TO.C,D63*
X379927380Y-124785714D02*
X378927380Y-124785714D01*
X378927380Y-125023809D01*
X378975000Y-125166666D01*
X379070238Y-125261904D01*
X379165476Y-125309523D01*
X379355952Y-125357142D01*
X379498809Y-125357142D01*
X379689285Y-125309523D01*
X379784523Y-125261904D01*
X379879761Y-125166666D01*
X379927380Y-125023809D01*
X379927380Y-124785714D01*
X378927380Y-126214285D02*
X378927380Y-126023809D01*
X378975000Y-125928571D01*
X379022619Y-125880952D01*
X379165476Y-125785714D01*
X379355952Y-125738095D01*
X379736904Y-125738095D01*
X379832142Y-125785714D01*
X379879761Y-125833333D01*
X379927380Y-125928571D01*
X379927380Y-126119047D01*
X379879761Y-126214285D01*
X379832142Y-126261904D01*
X379736904Y-126309523D01*
X379498809Y-126309523D01*
X379403571Y-126261904D01*
X379355952Y-126214285D01*
X379308333Y-126119047D01*
X379308333Y-125928571D01*
X379355952Y-125833333D01*
X379403571Y-125785714D01*
X379498809Y-125738095D01*
X378927380Y-126642857D02*
X378927380Y-127261904D01*
X379308333Y-126928571D01*
X379308333Y-127071428D01*
X379355952Y-127166666D01*
X379403571Y-127214285D01*
X379498809Y-127261904D01*
X379736904Y-127261904D01*
X379832142Y-127214285D01*
X379879761Y-127166666D01*
X379927380Y-127071428D01*
X379927380Y-126785714D01*
X379879761Y-126690476D01*
X379832142Y-126642857D01*
G04 #@! TO.C,D64*
X343478380Y-163235714D02*
X342478380Y-163235714D01*
X342478380Y-163473809D01*
X342526000Y-163616666D01*
X342621238Y-163711904D01*
X342716476Y-163759523D01*
X342906952Y-163807142D01*
X343049809Y-163807142D01*
X343240285Y-163759523D01*
X343335523Y-163711904D01*
X343430761Y-163616666D01*
X343478380Y-163473809D01*
X343478380Y-163235714D01*
X342478380Y-164664285D02*
X342478380Y-164473809D01*
X342526000Y-164378571D01*
X342573619Y-164330952D01*
X342716476Y-164235714D01*
X342906952Y-164188095D01*
X343287904Y-164188095D01*
X343383142Y-164235714D01*
X343430761Y-164283333D01*
X343478380Y-164378571D01*
X343478380Y-164569047D01*
X343430761Y-164664285D01*
X343383142Y-164711904D01*
X343287904Y-164759523D01*
X343049809Y-164759523D01*
X342954571Y-164711904D01*
X342906952Y-164664285D01*
X342859333Y-164569047D01*
X342859333Y-164378571D01*
X342906952Y-164283333D01*
X342954571Y-164235714D01*
X343049809Y-164188095D01*
X342811714Y-165616666D02*
X343478380Y-165616666D01*
X342430761Y-165378571D02*
X343145047Y-165140476D01*
X343145047Y-165759523D01*
G04 #@! TO.C,D65*
X362528380Y-163235714D02*
X361528380Y-163235714D01*
X361528380Y-163473809D01*
X361576000Y-163616666D01*
X361671238Y-163711904D01*
X361766476Y-163759523D01*
X361956952Y-163807142D01*
X362099809Y-163807142D01*
X362290285Y-163759523D01*
X362385523Y-163711904D01*
X362480761Y-163616666D01*
X362528380Y-163473809D01*
X362528380Y-163235714D01*
X361528380Y-164664285D02*
X361528380Y-164473809D01*
X361576000Y-164378571D01*
X361623619Y-164330952D01*
X361766476Y-164235714D01*
X361956952Y-164188095D01*
X362337904Y-164188095D01*
X362433142Y-164235714D01*
X362480761Y-164283333D01*
X362528380Y-164378571D01*
X362528380Y-164569047D01*
X362480761Y-164664285D01*
X362433142Y-164711904D01*
X362337904Y-164759523D01*
X362099809Y-164759523D01*
X362004571Y-164711904D01*
X361956952Y-164664285D01*
X361909333Y-164569047D01*
X361909333Y-164378571D01*
X361956952Y-164283333D01*
X362004571Y-164235714D01*
X362099809Y-164188095D01*
X361528380Y-165664285D02*
X361528380Y-165188095D01*
X362004571Y-165140476D01*
X361956952Y-165188095D01*
X361909333Y-165283333D01*
X361909333Y-165521428D01*
X361956952Y-165616666D01*
X362004571Y-165664285D01*
X362099809Y-165711904D01*
X362337904Y-165711904D01*
X362433142Y-165664285D01*
X362480761Y-165616666D01*
X362528380Y-165521428D01*
X362528380Y-165283333D01*
X362480761Y-165188095D01*
X362433142Y-165140476D01*
G04 #@! TO.C,D66*
X358210380Y-182173714D02*
X357210380Y-182173714D01*
X357210380Y-182411809D01*
X357258000Y-182554666D01*
X357353238Y-182649904D01*
X357448476Y-182697523D01*
X357638952Y-182745142D01*
X357781809Y-182745142D01*
X357972285Y-182697523D01*
X358067523Y-182649904D01*
X358162761Y-182554666D01*
X358210380Y-182411809D01*
X358210380Y-182173714D01*
X357210380Y-183602285D02*
X357210380Y-183411809D01*
X357258000Y-183316571D01*
X357305619Y-183268952D01*
X357448476Y-183173714D01*
X357638952Y-183126095D01*
X358019904Y-183126095D01*
X358115142Y-183173714D01*
X358162761Y-183221333D01*
X358210380Y-183316571D01*
X358210380Y-183507047D01*
X358162761Y-183602285D01*
X358115142Y-183649904D01*
X358019904Y-183697523D01*
X357781809Y-183697523D01*
X357686571Y-183649904D01*
X357638952Y-183602285D01*
X357591333Y-183507047D01*
X357591333Y-183316571D01*
X357638952Y-183221333D01*
X357686571Y-183173714D01*
X357781809Y-183126095D01*
X357210380Y-184554666D02*
X357210380Y-184364190D01*
X357258000Y-184268952D01*
X357305619Y-184221333D01*
X357448476Y-184126095D01*
X357638952Y-184078476D01*
X358019904Y-184078476D01*
X358115142Y-184126095D01*
X358162761Y-184173714D01*
X358210380Y-184268952D01*
X358210380Y-184459428D01*
X358162761Y-184554666D01*
X358115142Y-184602285D01*
X358019904Y-184649904D01*
X357781809Y-184649904D01*
X357686571Y-184602285D01*
X357638952Y-184554666D01*
X357591333Y-184459428D01*
X357591333Y-184268952D01*
X357638952Y-184173714D01*
X357686571Y-184126095D01*
X357781809Y-184078476D01*
G04 #@! TO.C,D67*
X380816380Y-182427714D02*
X379816380Y-182427714D01*
X379816380Y-182665809D01*
X379864000Y-182808666D01*
X379959238Y-182903904D01*
X380054476Y-182951523D01*
X380244952Y-182999142D01*
X380387809Y-182999142D01*
X380578285Y-182951523D01*
X380673523Y-182903904D01*
X380768761Y-182808666D01*
X380816380Y-182665809D01*
X380816380Y-182427714D01*
X379816380Y-183856285D02*
X379816380Y-183665809D01*
X379864000Y-183570571D01*
X379911619Y-183522952D01*
X380054476Y-183427714D01*
X380244952Y-183380095D01*
X380625904Y-183380095D01*
X380721142Y-183427714D01*
X380768761Y-183475333D01*
X380816380Y-183570571D01*
X380816380Y-183761047D01*
X380768761Y-183856285D01*
X380721142Y-183903904D01*
X380625904Y-183951523D01*
X380387809Y-183951523D01*
X380292571Y-183903904D01*
X380244952Y-183856285D01*
X380197333Y-183761047D01*
X380197333Y-183570571D01*
X380244952Y-183475333D01*
X380292571Y-183427714D01*
X380387809Y-183380095D01*
X379816380Y-184284857D02*
X379816380Y-184951523D01*
X380816380Y-184522952D01*
G04 #@! TD*
M02*
