M48
METRIC,TZ
T1C0.400
T2C0.700
T3C1.000
T4C1.470
T5C2.200
%
G90
G05
T1
X78.15Y-109.1
X84.8Y-101.1
X87.5Y-110.7
X88.1Y-107.9
X92.6Y-112.7
X92.65Y-108.8
X93.6Y-111.8
X100.4Y-112.7
X110.2Y-146.6
X113.347Y-160.913
X115.7Y-147.2
X119.5Y-127.7
X125.8Y-127.5
X133.798Y-174.775
X133.875Y-173.979
X136.2Y-146.9
X140.201Y-145.347
X155.Y-165.8
X158.967Y-161.933
X162.7Y-149.
X162.804Y-176.496
X162.9Y-173.5
X163.235Y-165.565
X163.525Y-171.3
X163.7Y-175.5
X163.726Y-174.642
X164.048Y-170.695
X164.3Y-169.5
X164.3Y-183.9
X164.5Y-109.9
X164.6Y-166.3
X168.3Y-165.3
X168.7Y-182.4
X169.731Y-182.725
X170.9Y-179.7
X171.589Y-181.475
X171.8Y-146.538
X171.8Y-167.8
X173.2Y-164.5
X173.225Y-182.575
X175.489Y-181.346
X176.643Y-181.475
X178.4Y-166.2
X180.9Y-175.7
X182.Y-181.1
X182.021Y-181.9
X183.2Y-187.825
X183.919Y-185.175
X184.825Y-178.
X186.7Y-185.8
X187.4Y-165.6
X188.6Y-190.
X188.8Y-187.2
X188.9Y-184.5
X190.9Y-178.8
X196.1Y-162.4
X207.7Y-182.8
X208.2Y-150.4
X217.Y-178.55
X219.548Y-182.025
X233.5Y-147.275
X239.8Y-183.6
X241.Y-175.7
X241.1Y-179.3
X246.2Y-147.2
X276.5Y-165.7
X278.8Y-178.
X280.203Y-177.874
X282.4Y-165.7
X283.475Y-176.675
X296.Y-146.4
X308.3Y-149.7
X313.4Y-154.8
X316.7Y-150.7
X343.5Y-183.2
X344.15Y-114.7
X346.1Y-156.1
X346.2Y-108.2
X352.4Y-169.6
X354.7Y-168.3
X356.4Y-103.8
X356.4Y-128.2
X359.25Y-177.05
X360.9Y-171.75
T3
X238.62Y-186.01
X238.62Y-188.55
X241.16Y-186.01
X241.16Y-188.55
X243.7Y-186.01
X243.7Y-188.55
T4
X150.878Y-141.212
X155.878Y-140.712
X169.928Y-141.212
X174.928Y-140.712
X284.266Y-141.237
X289.266Y-140.737
X312.8Y-160.287
X317.8Y-159.787
X117.54Y-103.112
X122.54Y-102.612
X98.49Y-103.111
X103.49Y-102.611
X250.89Y-103.099
X255.89Y-102.599
X146.128Y-122.162
X151.128Y-121.662
X236.654Y-160.287
X241.654Y-159.787
X293.753Y-160.287
X298.753Y-159.787
X317.527Y-122.162
X322.527Y-121.662
X103.25Y-160.272
X108.25Y-159.772
X188.978Y-141.237
X193.978Y-140.737
X331.85Y-160.3
X336.85Y-159.8
X322.27Y-160.3
X327.27Y-159.8
X184.19Y-122.162
X189.19Y-121.662
X334.253Y-103.099
X339.253Y-102.599
X274.716Y-160.287
X279.716Y-159.787
X179.44Y-160.262
X184.44Y-159.762
X131.828Y-141.212
X136.828Y-140.712
X227.103Y-141.237
X232.103Y-140.737
X369.95Y-122.15
X374.95Y-121.65
X265.216Y-141.237
X270.216Y-140.737
X369.95Y-103.1
X374.95Y-102.6
X208.041Y-179.286
X213.041Y-178.786
X369.95Y-179.35
X374.95Y-178.85
X288.99Y-103.099
X293.99Y-102.599
X260.377Y-122.162
X265.377Y-121.662
X269.94Y-103.099
X274.94Y-102.599
X284.266Y-179.286
X289.266Y-178.786
X217.553Y-160.249
X222.553Y-159.749
X141.353Y-160.272
X146.353Y-159.772
X79.434Y-160.272
X84.434Y-159.772
X212.79Y-103.099
X217.79Y-102.599
X331.885Y-179.336
X336.885Y-178.836
X308.04Y-103.099
X313.04Y-102.599
X347.919Y-133.181
X348.419Y-138.181
X241.327Y-122.162
X246.327Y-121.662
X108.015Y-122.162
X113.015Y-121.662
X131.828Y-179.286
X136.828Y-178.786
X105.615Y-179.286
X110.615Y-178.786
X84.196Y-141.212
X89.196Y-140.712
X322.315Y-141.237
X327.315Y-140.737
X193.74Y-103.099
X198.74Y-102.599
X77.053Y-111.112
X82.053Y-111.612
X279.427Y-122.162
X284.427Y-121.662
X298.477Y-122.162
X303.477Y-121.662
X160.377Y-160.273
X165.377Y-159.773
X231.853Y-103.099
X236.853Y-102.599
X255.653Y-160.287
X260.653Y-159.787
X122.303Y-160.272
X127.303Y-159.772
X112.765Y-141.212
X117.765Y-140.712
X350.9Y-179.35
X355.9Y-178.85
X136.578Y-103.112
X141.578Y-102.612
X203.227Y-122.162
X208.227Y-121.662
X222.277Y-122.162
X227.277Y-121.662
X81.815Y-122.162
X86.815Y-121.662
X310.453Y-179.286
X315.453Y-178.786
X198.503Y-160.249
X203.503Y-159.749
X208.041Y-141.237
X213.041Y-140.737
X246.166Y-141.237
X251.166Y-140.737
X303.316Y-141.237
X308.316Y-140.737
X350.9Y-160.25
X355.9Y-159.75
X174.69Y-103.099
X179.69Y-102.599
X155.64Y-103.099
X160.64Y-102.599
X127.065Y-122.162
X132.065Y-121.662
X165.127Y-122.162
X170.127Y-121.662
X79.435Y-179.337
X84.435Y-178.837
T2
X354.49Y-99.83G85X354.49Y-100.83
G05
X354.49Y-104.63G85X354.49Y-105.63
G05
X361.79Y-99.83G85X361.79Y-100.83
G05
X361.79Y-104.63G85X361.79Y-105.63
G05
X82.939Y-99.83G85X82.939Y-100.83
G05
X82.939Y-104.63G85X82.939Y-105.63
G05
X90.239Y-99.83G85X90.239Y-100.83
G05
X90.239Y-104.63G85X90.239Y-105.63
G05
T5
X361.6Y-116.6G85X364.4Y-116.6
G05
X90.4Y-126.2G85X93.2Y-126.2
G05
X361.6Y-183.4G85X364.4Y-183.4
G05
X90.8Y-183.4G85X93.6Y-183.4
G05
X285.4Y-126.2G85X288.2Y-126.2
G05
X195.3Y-145.2G85X199.1Y-145.2
G05
X297.3Y-183.2G85X301.1Y-183.2
G05
T0
M30
