G04 #@! TF.GenerationSoftware,KiCad,Pcbnew,(5.0.0)*
G04 #@! TF.CreationDate,2018-12-28T22:37:37+01:00*
G04 #@! TF.ProjectId,cyclops,6379636C6F70732E6B696361645F7063,rev?*
G04 #@! TF.SameCoordinates,Original*
G04 #@! TF.FileFunction,Legend,Bot*
G04 #@! TF.FilePolarity,Positive*
%FSLAX46Y46*%
G04 Gerber Fmt 4.6, Leading zero omitted, Abs format (unit mm)*
G04 Created by KiCad (PCBNEW (5.0.0)) date 12/28/18 22:37:37*
%MOMM*%
%LPD*%
G01*
G04 APERTURE LIST*
%ADD10C,0.300000*%
%ADD11C,0.075000*%
%ADD12C,0.120000*%
%ADD13C,0.150000*%
G04 APERTURE END LIST*
D10*
X272242857Y-186428571D02*
X272742857Y-185714285D01*
X273100000Y-186428571D02*
X273100000Y-184928571D01*
X272528571Y-184928571D01*
X272385714Y-185000000D01*
X272314285Y-185071428D01*
X272242857Y-185214285D01*
X272242857Y-185428571D01*
X272314285Y-185571428D01*
X272385714Y-185642857D01*
X272528571Y-185714285D01*
X273100000Y-185714285D01*
X271028571Y-186357142D02*
X271171428Y-186428571D01*
X271457142Y-186428571D01*
X271600000Y-186357142D01*
X271671428Y-186214285D01*
X271671428Y-185642857D01*
X271600000Y-185500000D01*
X271457142Y-185428571D01*
X271171428Y-185428571D01*
X271028571Y-185500000D01*
X270957142Y-185642857D01*
X270957142Y-185785714D01*
X271671428Y-185928571D01*
X270457142Y-185428571D02*
X270100000Y-186428571D01*
X269742857Y-185428571D01*
X269171428Y-186285714D02*
X269100000Y-186357142D01*
X269171428Y-186428571D01*
X269242857Y-186357142D01*
X269171428Y-186285714D01*
X269171428Y-186428571D01*
X267457142Y-184928571D02*
X266528571Y-184928571D01*
X267028571Y-185500000D01*
X266814285Y-185500000D01*
X266671428Y-185571428D01*
X266600000Y-185642857D01*
X266528571Y-185785714D01*
X266528571Y-186142857D01*
X266600000Y-186285714D01*
X266671428Y-186357142D01*
X266814285Y-186428571D01*
X267242857Y-186428571D01*
X267385714Y-186357142D01*
X267457142Y-186285714D01*
X273145357Y-182953571D02*
X272984642Y-183953571D01*
X272609642Y-183239285D01*
X272413214Y-183953571D01*
X272002500Y-182953571D01*
X270975714Y-183882142D02*
X271127500Y-183953571D01*
X271413214Y-183953571D01*
X271547142Y-183882142D01*
X271600714Y-183739285D01*
X271529285Y-183167857D01*
X271440000Y-183025000D01*
X271288214Y-182953571D01*
X271002500Y-182953571D01*
X270868571Y-183025000D01*
X270815000Y-183167857D01*
X270832857Y-183310714D01*
X271565000Y-183453571D01*
X270332857Y-183882142D02*
X270198928Y-183953571D01*
X269913214Y-183953571D01*
X269761428Y-183882142D01*
X269672142Y-183739285D01*
X269663214Y-183667857D01*
X269716785Y-183525000D01*
X269850714Y-183453571D01*
X270065000Y-183453571D01*
X270198928Y-183382142D01*
X270252500Y-183239285D01*
X270243571Y-183167857D01*
X270154285Y-183025000D01*
X270002500Y-182953571D01*
X269788214Y-182953571D01*
X269654285Y-183025000D01*
X269145357Y-182953571D02*
X268573928Y-182953571D01*
X268868571Y-182453571D02*
X269029285Y-183739285D01*
X268975714Y-183882142D01*
X268841785Y-183953571D01*
X268698928Y-183953571D01*
X268288214Y-182953571D02*
X267716785Y-182953571D01*
X268198928Y-183953571D02*
X268038214Y-182667857D01*
X267948928Y-182525000D01*
X267797142Y-182453571D01*
X267654285Y-182453571D01*
X267127500Y-183953571D02*
X267261428Y-183882142D01*
X267323928Y-183810714D01*
X267377500Y-183667857D01*
X267323928Y-183239285D01*
X267234642Y-183096428D01*
X267154285Y-183025000D01*
X267002500Y-182953571D01*
X266788214Y-182953571D01*
X266654285Y-183025000D01*
X266591785Y-183096428D01*
X266538214Y-183239285D01*
X266591785Y-183667857D01*
X266681071Y-183810714D01*
X266761428Y-183882142D01*
X266913214Y-183953571D01*
X267127500Y-183953571D01*
X266127500Y-183953571D02*
X265216785Y-182953571D01*
X266002500Y-182953571D02*
X265341785Y-183953571D01*
X264859642Y-182953571D02*
X264288214Y-182953571D01*
X264582857Y-182453571D02*
X264743571Y-183739285D01*
X264690000Y-183882142D01*
X264556071Y-183953571D01*
X264413214Y-183953571D01*
X263913214Y-183953571D02*
X263788214Y-182953571D01*
X263823928Y-183239285D02*
X263734642Y-183096428D01*
X263654285Y-183025000D01*
X263502500Y-182953571D01*
X263359642Y-182953571D01*
X262770357Y-183953571D02*
X262904285Y-183882142D01*
X262966785Y-183810714D01*
X263020357Y-183667857D01*
X262966785Y-183239285D01*
X262877500Y-183096428D01*
X262797142Y-183025000D01*
X262645357Y-182953571D01*
X262431071Y-182953571D01*
X262297142Y-183025000D01*
X262234642Y-183096428D01*
X262181071Y-183239285D01*
X262234642Y-183667857D01*
X262323928Y-183810714D01*
X262404285Y-183882142D01*
X262556071Y-183953571D01*
X262770357Y-183953571D01*
X261716785Y-182953571D02*
X261145357Y-182953571D01*
X261440000Y-182453571D02*
X261600714Y-183739285D01*
X261547142Y-183882142D01*
X261413214Y-183953571D01*
X261270357Y-183953571D01*
X272403571Y-181310714D02*
X272475000Y-181382142D01*
X272689285Y-181453571D01*
X272832142Y-181453571D01*
X273046428Y-181382142D01*
X273189285Y-181239285D01*
X273260714Y-181096428D01*
X273332142Y-180810714D01*
X273332142Y-180596428D01*
X273260714Y-180310714D01*
X273189285Y-180167857D01*
X273046428Y-180025000D01*
X272832142Y-179953571D01*
X272689285Y-179953571D01*
X272475000Y-180025000D01*
X272403571Y-180096428D01*
X271903571Y-180453571D02*
X271546428Y-181453571D01*
X271189285Y-180453571D02*
X271546428Y-181453571D01*
X271689285Y-181810714D01*
X271760714Y-181882142D01*
X271903571Y-181953571D01*
X269975000Y-181382142D02*
X270117857Y-181453571D01*
X270403571Y-181453571D01*
X270546428Y-181382142D01*
X270617857Y-181310714D01*
X270689285Y-181167857D01*
X270689285Y-180739285D01*
X270617857Y-180596428D01*
X270546428Y-180525000D01*
X270403571Y-180453571D01*
X270117857Y-180453571D01*
X269975000Y-180525000D01*
X269117857Y-181453571D02*
X269260714Y-181382142D01*
X269332142Y-181239285D01*
X269332142Y-179953571D01*
X268332142Y-181453571D02*
X268475000Y-181382142D01*
X268546428Y-181310714D01*
X268617857Y-181167857D01*
X268617857Y-180739285D01*
X268546428Y-180596428D01*
X268475000Y-180525000D01*
X268332142Y-180453571D01*
X268117857Y-180453571D01*
X267975000Y-180525000D01*
X267903571Y-180596428D01*
X267832142Y-180739285D01*
X267832142Y-181167857D01*
X267903571Y-181310714D01*
X267975000Y-181382142D01*
X268117857Y-181453571D01*
X268332142Y-181453571D01*
X267189285Y-180453571D02*
X267189285Y-181953571D01*
X267189285Y-180525000D02*
X267046428Y-180453571D01*
X266760714Y-180453571D01*
X266617857Y-180525000D01*
X266546428Y-180596428D01*
X266475000Y-180739285D01*
X266475000Y-181167857D01*
X266546428Y-181310714D01*
X266617857Y-181382142D01*
X266760714Y-181453571D01*
X267046428Y-181453571D01*
X267189285Y-181382142D01*
X265903571Y-181382142D02*
X265760714Y-181453571D01*
X265475000Y-181453571D01*
X265332142Y-181382142D01*
X265260714Y-181239285D01*
X265260714Y-181167857D01*
X265332142Y-181025000D01*
X265475000Y-180953571D01*
X265689285Y-180953571D01*
X265832142Y-180882142D01*
X265903571Y-180739285D01*
X265903571Y-180667857D01*
X265832142Y-180525000D01*
X265689285Y-180453571D01*
X265475000Y-180453571D01*
X265332142Y-180525000D01*
X263475000Y-181453571D02*
X263475000Y-179953571D01*
X262903571Y-179953571D01*
X262760714Y-180025000D01*
X262689285Y-180096428D01*
X262617857Y-180239285D01*
X262617857Y-180453571D01*
X262689285Y-180596428D01*
X262760714Y-180667857D01*
X262903571Y-180739285D01*
X263475000Y-180739285D01*
X261117857Y-181310714D02*
X261189285Y-181382142D01*
X261403571Y-181453571D01*
X261546428Y-181453571D01*
X261760714Y-181382142D01*
X261903571Y-181239285D01*
X261975000Y-181096428D01*
X262046428Y-180810714D01*
X262046428Y-180596428D01*
X261975000Y-180310714D01*
X261903571Y-180167857D01*
X261760714Y-180025000D01*
X261546428Y-179953571D01*
X261403571Y-179953571D01*
X261189285Y-180025000D01*
X261117857Y-180096428D01*
X259975000Y-180667857D02*
X259760714Y-180739285D01*
X259689285Y-180810714D01*
X259617857Y-180953571D01*
X259617857Y-181167857D01*
X259689285Y-181310714D01*
X259760714Y-181382142D01*
X259903571Y-181453571D01*
X260475000Y-181453571D01*
X260475000Y-179953571D01*
X259975000Y-179953571D01*
X259832142Y-180025000D01*
X259760714Y-180096428D01*
X259689285Y-180239285D01*
X259689285Y-180382142D01*
X259760714Y-180525000D01*
X259832142Y-180596428D01*
X259975000Y-180667857D01*
X260475000Y-180667857D01*
D11*
G04 #@! TO.C,D1*
X79350000Y-107550000D02*
X79700000Y-107850000D01*
X80050000Y-107550000D02*
X79350000Y-107550000D01*
X79700000Y-107850000D02*
X80050000Y-107550000D01*
X80050000Y-107850000D02*
X79350000Y-107850000D01*
G04 #@! TO.C,D2*
X107600000Y-107038000D02*
X107950000Y-107338000D01*
X108300000Y-107038000D02*
X107600000Y-107038000D01*
X107950000Y-107338000D02*
X108300000Y-107038000D01*
X108300000Y-107338000D02*
X107600000Y-107338000D01*
G04 #@! TO.C,D3*
X126650000Y-107038000D02*
X127000000Y-107338000D01*
X127350000Y-107038000D02*
X126650000Y-107038000D01*
X127000000Y-107338000D02*
X127350000Y-107038000D01*
X127350000Y-107338000D02*
X126650000Y-107338000D01*
G04 #@! TO.C,D4*
X145700000Y-107038000D02*
X146050000Y-107338000D01*
X146400000Y-107038000D02*
X145700000Y-107038000D01*
X146050000Y-107338000D02*
X146400000Y-107038000D01*
X146400000Y-107338000D02*
X145700000Y-107338000D01*
G04 #@! TO.C,D5*
X164750000Y-106961800D02*
X165100000Y-107261800D01*
X165450000Y-106961800D02*
X164750000Y-106961800D01*
X165100000Y-107261800D02*
X165450000Y-106961800D01*
X165450000Y-107261800D02*
X164750000Y-107261800D01*
G04 #@! TO.C,D6*
X183800000Y-106974500D02*
X184150000Y-107274500D01*
X184500000Y-106974500D02*
X183800000Y-106974500D01*
X184150000Y-107274500D02*
X184500000Y-106974500D01*
X184500000Y-107274500D02*
X183800000Y-107274500D01*
G04 #@! TO.C,D7*
X202850000Y-106961800D02*
X203200000Y-107261800D01*
X203550000Y-106961800D02*
X202850000Y-106961800D01*
X203200000Y-107261800D02*
X203550000Y-106961800D01*
X203550000Y-107261800D02*
X202850000Y-107261800D01*
G04 #@! TO.C,D8*
X221900000Y-106961800D02*
X222250000Y-107261800D01*
X222600000Y-106961800D02*
X221900000Y-106961800D01*
X222250000Y-107261800D02*
X222600000Y-106961800D01*
X222600000Y-107261800D02*
X221900000Y-107261800D01*
G04 #@! TO.C,D9*
X240950000Y-106961800D02*
X241300000Y-107261800D01*
X241650000Y-106961800D02*
X240950000Y-106961800D01*
X241300000Y-107261800D02*
X241650000Y-106961800D01*
X241650000Y-107261800D02*
X240950000Y-107261800D01*
G04 #@! TO.C,D10*
X260000000Y-106936400D02*
X260350000Y-107236400D01*
X260700000Y-106936400D02*
X260000000Y-106936400D01*
X260350000Y-107236400D02*
X260700000Y-106936400D01*
X260700000Y-107236400D02*
X260000000Y-107236400D01*
G04 #@! TO.C,D11*
X279050000Y-106923700D02*
X279400000Y-107223700D01*
X279750000Y-106923700D02*
X279050000Y-106923700D01*
X279400000Y-107223700D02*
X279750000Y-106923700D01*
X279750000Y-107223700D02*
X279050000Y-107223700D01*
G04 #@! TO.C,D12*
X298100000Y-106923700D02*
X298450000Y-107223700D01*
X298800000Y-106923700D02*
X298100000Y-106923700D01*
X298450000Y-107223700D02*
X298800000Y-106923700D01*
X298800000Y-107223700D02*
X298100000Y-107223700D01*
G04 #@! TO.C,D13*
X317000000Y-106875000D02*
X317350000Y-107175000D01*
X317700000Y-106875000D02*
X317000000Y-106875000D01*
X317350000Y-107175000D02*
X317700000Y-106875000D01*
X317700000Y-107175000D02*
X317000000Y-107175000D01*
G04 #@! TO.C,D14*
X343312000Y-106784000D02*
X343662000Y-107084000D01*
X344012000Y-106784000D02*
X343312000Y-106784000D01*
X343662000Y-107084000D02*
X344012000Y-106784000D01*
X344012000Y-107084000D02*
X343312000Y-107084000D01*
G04 #@! TO.C,D15*
X76967600Y-126011800D02*
X77317600Y-126311800D01*
X77667600Y-126011800D02*
X76967600Y-126011800D01*
X77317600Y-126311800D02*
X77667600Y-126011800D01*
X77667600Y-126311800D02*
X76967600Y-126311800D01*
G04 #@! TO.C,D16*
X117252000Y-126024500D02*
X117602000Y-126324500D01*
X117952000Y-126024500D02*
X117252000Y-126024500D01*
X117602000Y-126324500D02*
X117952000Y-126024500D01*
X117952000Y-126324500D02*
X117252000Y-126324500D01*
G04 #@! TO.C,D17*
X136302000Y-126011800D02*
X136652000Y-126311800D01*
X137002000Y-126011800D02*
X136302000Y-126011800D01*
X136652000Y-126311800D02*
X137002000Y-126011800D01*
X137002000Y-126311800D02*
X136302000Y-126311800D01*
G04 #@! TO.C,D18*
X155352000Y-126011800D02*
X155702000Y-126311800D01*
X156052000Y-126011800D02*
X155352000Y-126011800D01*
X155702000Y-126311800D02*
X156052000Y-126011800D01*
X156052000Y-126311800D02*
X155352000Y-126311800D01*
G04 #@! TO.C,D19*
X174148000Y-125999100D02*
X174498000Y-126299100D01*
X174848000Y-125999100D02*
X174148000Y-125999100D01*
X174498000Y-126299100D02*
X174848000Y-125999100D01*
X174848000Y-126299100D02*
X174148000Y-126299100D01*
G04 #@! TO.C,D20*
X193198000Y-126088000D02*
X193548000Y-126388000D01*
X193898000Y-126088000D02*
X193198000Y-126088000D01*
X193548000Y-126388000D02*
X193898000Y-126088000D01*
X193898000Y-126388000D02*
X193198000Y-126388000D01*
G04 #@! TO.C,D21*
X212248000Y-126024500D02*
X212598000Y-126324500D01*
X212948000Y-126024500D02*
X212248000Y-126024500D01*
X212598000Y-126324500D02*
X212948000Y-126024500D01*
X212948000Y-126324500D02*
X212248000Y-126324500D01*
G04 #@! TO.C,D22*
X231298000Y-125986400D02*
X231648000Y-126286400D01*
X231998000Y-125986400D02*
X231298000Y-125986400D01*
X231648000Y-126286400D02*
X231998000Y-125986400D01*
X231998000Y-126286400D02*
X231298000Y-126286400D01*
G04 #@! TO.C,D23*
X250348000Y-126011800D02*
X250698000Y-126311800D01*
X251048000Y-126011800D02*
X250348000Y-126011800D01*
X250698000Y-126311800D02*
X251048000Y-126011800D01*
X251048000Y-126311800D02*
X250348000Y-126311800D01*
G04 #@! TO.C,D24*
X269398000Y-126088000D02*
X269748000Y-126388000D01*
X270098000Y-126088000D02*
X269398000Y-126088000D01*
X269748000Y-126388000D02*
X270098000Y-126088000D01*
X270098000Y-126388000D02*
X269398000Y-126388000D01*
G04 #@! TO.C,D25*
X291242000Y-126088000D02*
X291592000Y-126388000D01*
X291942000Y-126088000D02*
X291242000Y-126088000D01*
X291592000Y-126388000D02*
X291942000Y-126088000D01*
X291942000Y-126388000D02*
X291242000Y-126388000D01*
G04 #@! TO.C,D26*
X307498000Y-126011800D02*
X307848000Y-126311800D01*
X308198000Y-126011800D02*
X307498000Y-126011800D01*
X307848000Y-126311800D02*
X308198000Y-126011800D01*
X308198000Y-126311800D02*
X307498000Y-126311800D01*
G04 #@! TO.C,D27*
X326548000Y-125999100D02*
X326898000Y-126299100D01*
X327248000Y-125999100D02*
X326548000Y-125999100D01*
X326898000Y-126299100D02*
X327248000Y-125999100D01*
X327248000Y-126299100D02*
X326548000Y-126299100D01*
G04 #@! TO.C,D28*
X93376000Y-145138000D02*
X93726000Y-145438000D01*
X94076000Y-145138000D02*
X93376000Y-145138000D01*
X93726000Y-145438000D02*
X94076000Y-145138000D01*
X94076000Y-145438000D02*
X93376000Y-145438000D01*
G04 #@! TO.C,D29*
X121824000Y-145138000D02*
X122174000Y-145438000D01*
X122524000Y-145138000D02*
X121824000Y-145138000D01*
X122174000Y-145438000D02*
X122524000Y-145138000D01*
X122524000Y-145438000D02*
X121824000Y-145438000D01*
G04 #@! TO.C,D30*
X140874000Y-145138000D02*
X141224000Y-145438000D01*
X141574000Y-145138000D02*
X140874000Y-145138000D01*
X141224000Y-145438000D02*
X141574000Y-145138000D01*
X141574000Y-145438000D02*
X140874000Y-145438000D01*
G04 #@! TO.C,D31*
X159924000Y-145138000D02*
X160274000Y-145438000D01*
X160624000Y-145138000D02*
X159924000Y-145138000D01*
X160274000Y-145438000D02*
X160624000Y-145138000D01*
X160624000Y-145438000D02*
X159924000Y-145438000D01*
G04 #@! TO.C,D32*
X178974000Y-145138000D02*
X179324000Y-145438000D01*
X179674000Y-145138000D02*
X178974000Y-145138000D01*
X179324000Y-145438000D02*
X179674000Y-145138000D01*
X179674000Y-145438000D02*
X178974000Y-145438000D01*
G04 #@! TO.C,D33*
X202088000Y-144630000D02*
X202438000Y-144930000D01*
X202788000Y-144630000D02*
X202088000Y-144630000D01*
X202438000Y-144930000D02*
X202788000Y-144630000D01*
X202788000Y-144930000D02*
X202088000Y-144930000D01*
G04 #@! TO.C,D34*
X217074000Y-144630000D02*
X217424000Y-144930000D01*
X217774000Y-144630000D02*
X217074000Y-144630000D01*
X217424000Y-144930000D02*
X217774000Y-144630000D01*
X217774000Y-144930000D02*
X217074000Y-144930000D01*
G04 #@! TO.C,D35*
X236124000Y-144884000D02*
X236474000Y-145184000D01*
X236824000Y-144884000D02*
X236124000Y-144884000D01*
X236474000Y-145184000D02*
X236824000Y-144884000D01*
X236824000Y-145184000D02*
X236124000Y-145184000D01*
G04 #@! TO.C,D36*
X255174000Y-144884000D02*
X255524000Y-145184000D01*
X255874000Y-144884000D02*
X255174000Y-144884000D01*
X255524000Y-145184000D02*
X255874000Y-144884000D01*
X255874000Y-145184000D02*
X255174000Y-145184000D01*
G04 #@! TO.C,D37*
X274224000Y-144884000D02*
X274574000Y-145184000D01*
X274924000Y-144884000D02*
X274224000Y-144884000D01*
X274574000Y-145184000D02*
X274924000Y-144884000D01*
X274924000Y-145184000D02*
X274224000Y-145184000D01*
G04 #@! TO.C,D38*
X293274000Y-144884000D02*
X293624000Y-145184000D01*
X293974000Y-144884000D02*
X293274000Y-144884000D01*
X293624000Y-145184000D02*
X293974000Y-144884000D01*
X293974000Y-145184000D02*
X293274000Y-145184000D01*
G04 #@! TO.C,D39*
X312324000Y-144884000D02*
X312674000Y-145184000D01*
X313024000Y-144884000D02*
X312324000Y-144884000D01*
X312674000Y-145184000D02*
X313024000Y-144884000D01*
X313024000Y-145184000D02*
X312324000Y-145184000D01*
G04 #@! TO.C,D40*
X331374000Y-144884000D02*
X331724000Y-145184000D01*
X332074000Y-144884000D02*
X331374000Y-144884000D01*
X331724000Y-145184000D02*
X332074000Y-144884000D01*
X332074000Y-145184000D02*
X331374000Y-145184000D01*
G04 #@! TO.C,D41*
X88550000Y-164111800D02*
X88900000Y-164411800D01*
X89250000Y-164111800D02*
X88550000Y-164111800D01*
X88900000Y-164411800D02*
X89250000Y-164111800D01*
X89250000Y-164411800D02*
X88550000Y-164411800D01*
G04 #@! TO.C,D42*
X112172000Y-164111800D02*
X112522000Y-164411800D01*
X112872000Y-164111800D02*
X112172000Y-164111800D01*
X112522000Y-164411800D02*
X112872000Y-164111800D01*
X112872000Y-164411800D02*
X112172000Y-164411800D01*
G04 #@! TO.C,D43*
X131476000Y-164099100D02*
X131826000Y-164399100D01*
X132176000Y-164099100D02*
X131476000Y-164099100D01*
X131826000Y-164399100D02*
X132176000Y-164099100D01*
X132176000Y-164399100D02*
X131476000Y-164399100D01*
G04 #@! TO.C,D44*
X150526000Y-164099100D02*
X150876000Y-164399100D01*
X151226000Y-164099100D02*
X150526000Y-164099100D01*
X150876000Y-164399100D02*
X151226000Y-164099100D01*
X151226000Y-164399100D02*
X150526000Y-164399100D01*
G04 #@! TO.C,D45*
X169576000Y-164111800D02*
X169926000Y-164411800D01*
X170276000Y-164111800D02*
X169576000Y-164111800D01*
X169926000Y-164411800D02*
X170276000Y-164111800D01*
X170276000Y-164411800D02*
X169576000Y-164411800D01*
G04 #@! TO.C,D46*
X188626000Y-164188000D02*
X188976000Y-164488000D01*
X189326000Y-164188000D02*
X188626000Y-164188000D01*
X188976000Y-164488000D02*
X189326000Y-164188000D01*
X189326000Y-164488000D02*
X188626000Y-164488000D01*
G04 #@! TO.C,D47*
X207676000Y-164111800D02*
X208026000Y-164411800D01*
X208376000Y-164111800D02*
X207676000Y-164111800D01*
X208026000Y-164411800D02*
X208376000Y-164111800D01*
X208376000Y-164411800D02*
X207676000Y-164411800D01*
G04 #@! TO.C,D48*
X226726000Y-164188000D02*
X227076000Y-164488000D01*
X227426000Y-164188000D02*
X226726000Y-164188000D01*
X227076000Y-164488000D02*
X227426000Y-164188000D01*
X227426000Y-164488000D02*
X226726000Y-164488000D01*
G04 #@! TO.C,D49*
X245776000Y-164188000D02*
X246126000Y-164488000D01*
X246476000Y-164188000D02*
X245776000Y-164188000D01*
X246126000Y-164488000D02*
X246476000Y-164188000D01*
X246476000Y-164488000D02*
X245776000Y-164488000D01*
G04 #@! TO.C,D50*
X264826000Y-164111800D02*
X265176000Y-164411800D01*
X265526000Y-164111800D02*
X264826000Y-164111800D01*
X265176000Y-164411800D02*
X265526000Y-164111800D01*
X265526000Y-164411800D02*
X264826000Y-164411800D01*
G04 #@! TO.C,D51*
X283876000Y-164137200D02*
X284226000Y-164437200D01*
X284576000Y-164137200D02*
X283876000Y-164137200D01*
X284226000Y-164437200D02*
X284576000Y-164137200D01*
X284576000Y-164437200D02*
X283876000Y-164437200D01*
G04 #@! TO.C,D52*
X302672000Y-164188000D02*
X303022000Y-164488000D01*
X303372000Y-164188000D02*
X302672000Y-164188000D01*
X303022000Y-164488000D02*
X303372000Y-164188000D01*
X303372000Y-164488000D02*
X302672000Y-164488000D01*
G04 #@! TO.C,D53*
X321976000Y-164300000D02*
X322326000Y-164600000D01*
X322676000Y-164300000D02*
X321976000Y-164300000D01*
X322326000Y-164600000D02*
X322676000Y-164300000D01*
X322676000Y-164600000D02*
X321976000Y-164600000D01*
G04 #@! TO.C,D54*
X83978000Y-182984000D02*
X84328000Y-183284000D01*
X84678000Y-182984000D02*
X83978000Y-182984000D01*
X84328000Y-183284000D02*
X84678000Y-182984000D01*
X84678000Y-183284000D02*
X83978000Y-183284000D01*
G04 #@! TO.C,D55*
X114712000Y-182984000D02*
X115062000Y-183284000D01*
X115412000Y-182984000D02*
X114712000Y-182984000D01*
X115062000Y-183284000D02*
X115412000Y-182984000D01*
X115412000Y-183284000D02*
X114712000Y-183284000D01*
G04 #@! TO.C,D56*
X140874000Y-183136400D02*
X141224000Y-183436400D01*
X141574000Y-183136400D02*
X140874000Y-183136400D01*
X141224000Y-183436400D02*
X141574000Y-183136400D01*
X141574000Y-183436400D02*
X140874000Y-183436400D01*
G04 #@! TO.C,D57*
X217074000Y-183136400D02*
X217424000Y-183436400D01*
X217774000Y-183136400D02*
X217074000Y-183136400D01*
X217424000Y-183436400D02*
X217774000Y-183136400D01*
X217774000Y-183436400D02*
X217074000Y-183436400D01*
G04 #@! TO.C,D58*
X293528000Y-183238000D02*
X293878000Y-183538000D01*
X294228000Y-183238000D02*
X293528000Y-183238000D01*
X293878000Y-183538000D02*
X294228000Y-183238000D01*
X294228000Y-183538000D02*
X293528000Y-183538000D01*
G04 #@! TO.C,D59*
X319690000Y-183238000D02*
X320040000Y-183538000D01*
X320390000Y-183238000D02*
X319690000Y-183238000D01*
X320040000Y-183538000D02*
X320390000Y-183238000D01*
X320390000Y-183538000D02*
X319690000Y-183538000D01*
G04 #@! TO.C,D60*
X341026000Y-183238000D02*
X341376000Y-183538000D01*
X341726000Y-183238000D02*
X341026000Y-183238000D01*
X341376000Y-183538000D02*
X341726000Y-183238000D01*
X341726000Y-183538000D02*
X341026000Y-183538000D01*
G04 #@! TO.C,D61*
X344074000Y-142598000D02*
X344424000Y-142898000D01*
X344774000Y-142598000D02*
X344074000Y-142598000D01*
X344424000Y-142898000D02*
X344774000Y-142598000D01*
X344774000Y-142898000D02*
X344074000Y-142898000D01*
G04 #@! TO.C,D62*
X367300000Y-107100000D02*
X367650000Y-107400000D01*
X368000000Y-107100000D02*
X367300000Y-107100000D01*
X367650000Y-107400000D02*
X368000000Y-107100000D01*
X368000000Y-107400000D02*
X367300000Y-107400000D01*
G04 #@! TO.C,D63*
X366800000Y-126050000D02*
X367150000Y-126350000D01*
X367500000Y-126050000D02*
X366800000Y-126050000D01*
X367150000Y-126350000D02*
X367500000Y-126050000D01*
X367500000Y-126350000D02*
X366800000Y-126350000D01*
G04 #@! TO.C,D64*
X341026000Y-164300000D02*
X341376000Y-164600000D01*
X341726000Y-164300000D02*
X341026000Y-164300000D01*
X341376000Y-164600000D02*
X341726000Y-164300000D01*
X341726000Y-164600000D02*
X341026000Y-164600000D01*
G04 #@! TO.C,D65*
X360076000Y-164300000D02*
X360426000Y-164600000D01*
X360776000Y-164300000D02*
X360076000Y-164300000D01*
X360426000Y-164600000D02*
X360776000Y-164300000D01*
X360776000Y-164600000D02*
X360076000Y-164600000D01*
G04 #@! TO.C,D66*
X355758000Y-183238000D02*
X356108000Y-183538000D01*
X356458000Y-183238000D02*
X355758000Y-183238000D01*
X356108000Y-183538000D02*
X356458000Y-183238000D01*
X356458000Y-183538000D02*
X355758000Y-183538000D01*
G04 #@! TO.C,D67*
X367750000Y-183400000D02*
X368100000Y-183700000D01*
X368450000Y-183400000D02*
X367750000Y-183400000D01*
X368100000Y-183700000D02*
X368450000Y-183400000D01*
X368450000Y-183700000D02*
X367750000Y-183700000D01*
D12*
G04 #@! TO.C,R1*
X91050000Y-114525000D02*
X91050000Y-113325000D01*
X89290000Y-113325000D02*
X89290000Y-114525000D01*
G04 #@! TO.C,R2*
X88830000Y-114525000D02*
X88830000Y-113325000D01*
X87070000Y-113325000D02*
X87070000Y-114525000D01*
G04 #@! TO.C,R3*
X191300000Y-189068000D02*
X191300000Y-187868000D01*
X189540000Y-187868000D02*
X189540000Y-189068000D01*
G04 #@! TO.C,R4*
X175904000Y-166706000D02*
X175904000Y-167906000D01*
X177664000Y-167906000D02*
X177664000Y-166706000D01*
G04 #@! TO.C,SW1*
X97573700Y-134103600D02*
X97573700Y-133653600D01*
X97573700Y-133653600D02*
X103873700Y-133653600D01*
X103873700Y-133653600D02*
X103873700Y-134053600D01*
X97573700Y-135403600D02*
X97573700Y-138103600D01*
X103873700Y-138103600D02*
X103873700Y-135403600D01*
X97573700Y-139853600D02*
X103873700Y-139853600D01*
X103873700Y-139853600D02*
X103873700Y-139403600D01*
X97573700Y-139403600D02*
X97573700Y-139853600D01*
G04 #@! TO.C,J2*
X237290000Y-189880000D02*
X237290000Y-184680000D01*
X242430000Y-189880000D02*
X237290000Y-189880000D01*
X245030000Y-184680000D02*
X237290000Y-184680000D01*
X242430000Y-189880000D02*
X242430000Y-187280000D01*
X242430000Y-187280000D02*
X245030000Y-187280000D01*
X245030000Y-187280000D02*
X245030000Y-184680000D01*
X243700000Y-189880000D02*
X245030000Y-189880000D01*
X245030000Y-189880000D02*
X245030000Y-188550000D01*
D13*
G04 #@! TO.C,U1*
X177895000Y-183991000D02*
X177320000Y-183991000D01*
X177895000Y-173641000D02*
X177220000Y-173641000D01*
X167545000Y-173641000D02*
X168220000Y-173641000D01*
X167545000Y-183991000D02*
X168220000Y-183991000D01*
X177895000Y-183991000D02*
X177895000Y-183316000D01*
X167545000Y-183991000D02*
X167545000Y-183316000D01*
X167545000Y-173641000D02*
X167545000Y-174316000D01*
X177895000Y-173641000D02*
X177895000Y-174316000D01*
X177320000Y-183991000D02*
X177320000Y-185266000D01*
D12*
G04 #@! TO.C,C1*
X162865000Y-187338748D02*
X162865000Y-187861252D01*
X164285000Y-187338748D02*
X164285000Y-187861252D01*
G04 #@! TO.C,C2*
X182085000Y-187338748D02*
X182085000Y-187861252D01*
X180665000Y-187338748D02*
X180665000Y-187861252D01*
G04 #@! TO.C,C3*
X165914000Y-167921252D02*
X165914000Y-167398748D01*
X167334000Y-167921252D02*
X167334000Y-167398748D01*
G04 #@! TO.C,C4*
X166940000Y-187338748D02*
X166940000Y-187861252D01*
X168360000Y-187338748D02*
X168360000Y-187861252D01*
G04 #@! TO.C,C5*
X175265000Y-187338748D02*
X175265000Y-187861252D01*
X176685000Y-187338748D02*
X176685000Y-187861252D01*
G04 #@! TO.C,C6*
X159793252Y-174240000D02*
X159270748Y-174240000D01*
X159793252Y-175660000D02*
X159270748Y-175660000D01*
G04 #@! TO.C,C7*
X159288748Y-181740000D02*
X159811252Y-181740000D01*
X159288748Y-183160000D02*
X159811252Y-183160000D01*
G04 #@! TO.C,C8*
X170765000Y-187886252D02*
X170765000Y-187363748D01*
X172185000Y-187886252D02*
X172185000Y-187363748D01*
G04 #@! TO.C,X1*
X162230940Y-178897487D02*
X159897487Y-181230940D01*
X159897487Y-181230940D02*
X157069060Y-178402513D01*
G04 #@! TO.C,J1*
D13*
X358473333Y-100582380D02*
X358473333Y-101296666D01*
X358520952Y-101439523D01*
X358616190Y-101534761D01*
X358759047Y-101582380D01*
X358854285Y-101582380D01*
X357473333Y-101582380D02*
X358044761Y-101582380D01*
X357759047Y-101582380D02*
X357759047Y-100582380D01*
X357854285Y-100725238D01*
X357949523Y-100820476D01*
X358044761Y-100868095D01*
X86921933Y-100582380D02*
X86921933Y-101296666D01*
X86969552Y-101439523D01*
X87064790Y-101534761D01*
X87207647Y-101582380D01*
X87302885Y-101582380D01*
X85921933Y-101582380D02*
X86493361Y-101582380D01*
X86207647Y-101582380D02*
X86207647Y-100582380D01*
X86302885Y-100725238D01*
X86398123Y-100820476D01*
X86493361Y-100868095D01*
G04 #@! TO.C,K1*
X80290895Y-104389180D02*
X80290895Y-103389180D01*
X79719466Y-104389180D02*
X80148038Y-103817752D01*
X79719466Y-103389180D02*
X80290895Y-103960609D01*
X78767085Y-104389180D02*
X79338514Y-104389180D01*
X79052800Y-104389180D02*
X79052800Y-103389180D01*
X79148038Y-103532038D01*
X79243276Y-103627276D01*
X79338514Y-103674895D01*
G04 #@! TO.C,R1*
X91467619Y-113163095D02*
X91420000Y-113210714D01*
X91372380Y-113305952D01*
X91372380Y-113544047D01*
X91420000Y-113639285D01*
X91467619Y-113686904D01*
X91562857Y-113734523D01*
X91658095Y-113734523D01*
X91800952Y-113686904D01*
X92372380Y-113115476D01*
X92372380Y-113734523D01*
X91467619Y-114115476D02*
X91420000Y-114163095D01*
X91372380Y-114258333D01*
X91372380Y-114496428D01*
X91420000Y-114591666D01*
X91467619Y-114639285D01*
X91562857Y-114686904D01*
X91658095Y-114686904D01*
X91800952Y-114639285D01*
X92372380Y-114067857D01*
X92372380Y-114686904D01*
G04 #@! TO.C,R2*
X85847619Y-113138095D02*
X85800000Y-113185714D01*
X85752380Y-113280952D01*
X85752380Y-113519047D01*
X85800000Y-113614285D01*
X85847619Y-113661904D01*
X85942857Y-113709523D01*
X86038095Y-113709523D01*
X86180952Y-113661904D01*
X86752380Y-113090476D01*
X86752380Y-113709523D01*
X85847619Y-114090476D02*
X85800000Y-114138095D01*
X85752380Y-114233333D01*
X85752380Y-114471428D01*
X85800000Y-114566666D01*
X85847619Y-114614285D01*
X85942857Y-114661904D01*
X86038095Y-114661904D01*
X86180952Y-114614285D01*
X86752380Y-114042857D01*
X86752380Y-114661904D01*
G04 #@! TO.C,R3*
X189174380Y-187523523D02*
X189174380Y-186952095D01*
X189174380Y-187237809D02*
X188174380Y-187237809D01*
X188317238Y-187142571D01*
X188412476Y-187047333D01*
X188460095Y-186952095D01*
X188174380Y-188142571D02*
X188174380Y-188237809D01*
X188222000Y-188333047D01*
X188269619Y-188380666D01*
X188364857Y-188428285D01*
X188555333Y-188475904D01*
X188793428Y-188475904D01*
X188983904Y-188428285D01*
X189079142Y-188380666D01*
X189126761Y-188333047D01*
X189174380Y-188237809D01*
X189174380Y-188142571D01*
X189126761Y-188047333D01*
X189079142Y-187999714D01*
X188983904Y-187952095D01*
X188793428Y-187904476D01*
X188555333Y-187904476D01*
X188364857Y-187952095D01*
X188269619Y-187999714D01*
X188222000Y-188047333D01*
X188174380Y-188142571D01*
X189174380Y-188904476D02*
X188174380Y-188904476D01*
X189174380Y-189475904D02*
X188602952Y-189047333D01*
X188174380Y-189475904D02*
X188745809Y-188904476D01*
G04 #@! TO.C,R4*
X175486380Y-166615523D02*
X175486380Y-166044095D01*
X175486380Y-166329809D02*
X174486380Y-166329809D01*
X174629238Y-166234571D01*
X174724476Y-166139333D01*
X174772095Y-166044095D01*
X174486380Y-167234571D02*
X174486380Y-167329809D01*
X174534000Y-167425047D01*
X174581619Y-167472666D01*
X174676857Y-167520285D01*
X174867333Y-167567904D01*
X175105428Y-167567904D01*
X175295904Y-167520285D01*
X175391142Y-167472666D01*
X175438761Y-167425047D01*
X175486380Y-167329809D01*
X175486380Y-167234571D01*
X175438761Y-167139333D01*
X175391142Y-167091714D01*
X175295904Y-167044095D01*
X175105428Y-166996476D01*
X174867333Y-166996476D01*
X174676857Y-167044095D01*
X174581619Y-167091714D01*
X174534000Y-167139333D01*
X174486380Y-167234571D01*
X175486380Y-167996476D02*
X174486380Y-167996476D01*
X175486380Y-168567904D02*
X174914952Y-168139333D01*
X174486380Y-168567904D02*
X175057809Y-167996476D01*
G04 #@! TO.C,SW1*
X102057033Y-141058361D02*
X101914176Y-141105980D01*
X101676080Y-141105980D01*
X101580842Y-141058361D01*
X101533223Y-141010742D01*
X101485604Y-140915504D01*
X101485604Y-140820266D01*
X101533223Y-140725028D01*
X101580842Y-140677409D01*
X101676080Y-140629790D01*
X101866557Y-140582171D01*
X101961795Y-140534552D01*
X102009414Y-140486933D01*
X102057033Y-140391695D01*
X102057033Y-140296457D01*
X102009414Y-140201219D01*
X101961795Y-140153600D01*
X101866557Y-140105980D01*
X101628461Y-140105980D01*
X101485604Y-140153600D01*
X101152271Y-140105980D02*
X100914176Y-141105980D01*
X100723700Y-140391695D01*
X100533223Y-141105980D01*
X100295128Y-140105980D01*
X99390366Y-141105980D02*
X99961795Y-141105980D01*
X99676080Y-141105980D02*
X99676080Y-140105980D01*
X99771319Y-140248838D01*
X99866557Y-140344076D01*
X99961795Y-140391695D01*
G04 #@! TO.C,J2*
X249096428Y-189002380D02*
X249096428Y-188002380D01*
X248763095Y-188716666D01*
X248429761Y-188002380D01*
X248429761Y-189002380D01*
X247953571Y-189002380D02*
X247953571Y-188002380D01*
X247525000Y-188954761D02*
X247382142Y-189002380D01*
X247144047Y-189002380D01*
X247048809Y-188954761D01*
X247001190Y-188907142D01*
X246953571Y-188811904D01*
X246953571Y-188716666D01*
X247001190Y-188621428D01*
X247048809Y-188573809D01*
X247144047Y-188526190D01*
X247334523Y-188478571D01*
X247429761Y-188430952D01*
X247477380Y-188383333D01*
X247525000Y-188288095D01*
X247525000Y-188192857D01*
X247477380Y-188097619D01*
X247429761Y-188050000D01*
X247334523Y-188002380D01*
X247096428Y-188002380D01*
X246953571Y-188050000D01*
X246334523Y-188002380D02*
X246144047Y-188002380D01*
X246048809Y-188050000D01*
X245953571Y-188145238D01*
X245905952Y-188335714D01*
X245905952Y-188669047D01*
X245953571Y-188859523D01*
X246048809Y-188954761D01*
X246144047Y-189002380D01*
X246334523Y-189002380D01*
X246429761Y-188954761D01*
X246525000Y-188859523D01*
X246572619Y-188669047D01*
X246572619Y-188335714D01*
X246525000Y-188145238D01*
X246429761Y-188050000D01*
X246334523Y-188002380D01*
G04 #@! TO.C,C1*
X164677380Y-186385714D02*
X164677380Y-186480952D01*
X164725000Y-186576190D01*
X164772619Y-186623809D01*
X164867857Y-186671428D01*
X165058333Y-186719047D01*
X165296428Y-186719047D01*
X165486904Y-186671428D01*
X165582142Y-186623809D01*
X165629761Y-186576190D01*
X165677380Y-186480952D01*
X165677380Y-186385714D01*
X165629761Y-186290476D01*
X165582142Y-186242857D01*
X165486904Y-186195238D01*
X165296428Y-186147619D01*
X165058333Y-186147619D01*
X164867857Y-186195238D01*
X164772619Y-186242857D01*
X164725000Y-186290476D01*
X164677380Y-186385714D01*
X165582142Y-187147619D02*
X165629761Y-187195238D01*
X165677380Y-187147619D01*
X165629761Y-187100000D01*
X165582142Y-187147619D01*
X165677380Y-187147619D01*
X165677380Y-188147619D02*
X165677380Y-187576190D01*
X165677380Y-187861904D02*
X164677380Y-187861904D01*
X164820238Y-187766666D01*
X164915476Y-187671428D01*
X164963095Y-187576190D01*
X165010714Y-189004761D02*
X165677380Y-189004761D01*
X165010714Y-188576190D02*
X165534523Y-188576190D01*
X165629761Y-188623809D01*
X165677380Y-188719047D01*
X165677380Y-188861904D01*
X165629761Y-188957142D01*
X165582142Y-189004761D01*
G04 #@! TO.C,C2*
X182477380Y-186385714D02*
X182477380Y-186480952D01*
X182525000Y-186576190D01*
X182572619Y-186623809D01*
X182667857Y-186671428D01*
X182858333Y-186719047D01*
X183096428Y-186719047D01*
X183286904Y-186671428D01*
X183382142Y-186623809D01*
X183429761Y-186576190D01*
X183477380Y-186480952D01*
X183477380Y-186385714D01*
X183429761Y-186290476D01*
X183382142Y-186242857D01*
X183286904Y-186195238D01*
X183096428Y-186147619D01*
X182858333Y-186147619D01*
X182667857Y-186195238D01*
X182572619Y-186242857D01*
X182525000Y-186290476D01*
X182477380Y-186385714D01*
X183382142Y-187147619D02*
X183429761Y-187195238D01*
X183477380Y-187147619D01*
X183429761Y-187100000D01*
X183382142Y-187147619D01*
X183477380Y-187147619D01*
X183477380Y-188147619D02*
X183477380Y-187576190D01*
X183477380Y-187861904D02*
X182477380Y-187861904D01*
X182620238Y-187766666D01*
X182715476Y-187671428D01*
X182763095Y-187576190D01*
X182810714Y-189004761D02*
X183477380Y-189004761D01*
X182810714Y-188576190D02*
X183334523Y-188576190D01*
X183429761Y-188623809D01*
X183477380Y-188719047D01*
X183477380Y-188861904D01*
X183429761Y-188957142D01*
X183382142Y-189004761D01*
G04 #@! TO.C,C3*
X164426380Y-166445714D02*
X164426380Y-166540952D01*
X164474000Y-166636190D01*
X164521619Y-166683809D01*
X164616857Y-166731428D01*
X164807333Y-166779047D01*
X165045428Y-166779047D01*
X165235904Y-166731428D01*
X165331142Y-166683809D01*
X165378761Y-166636190D01*
X165426380Y-166540952D01*
X165426380Y-166445714D01*
X165378761Y-166350476D01*
X165331142Y-166302857D01*
X165235904Y-166255238D01*
X165045428Y-166207619D01*
X164807333Y-166207619D01*
X164616857Y-166255238D01*
X164521619Y-166302857D01*
X164474000Y-166350476D01*
X164426380Y-166445714D01*
X165331142Y-167207619D02*
X165378761Y-167255238D01*
X165426380Y-167207619D01*
X165378761Y-167160000D01*
X165331142Y-167207619D01*
X165426380Y-167207619D01*
X165426380Y-168207619D02*
X165426380Y-167636190D01*
X165426380Y-167921904D02*
X164426380Y-167921904D01*
X164569238Y-167826666D01*
X164664476Y-167731428D01*
X164712095Y-167636190D01*
X164759714Y-169064761D02*
X165426380Y-169064761D01*
X164759714Y-168636190D02*
X165283523Y-168636190D01*
X165378761Y-168683809D01*
X165426380Y-168779047D01*
X165426380Y-168921904D01*
X165378761Y-169017142D01*
X165331142Y-169064761D01*
G04 #@! TO.C,C4*
X168752380Y-186385714D02*
X168752380Y-186480952D01*
X168800000Y-186576190D01*
X168847619Y-186623809D01*
X168942857Y-186671428D01*
X169133333Y-186719047D01*
X169371428Y-186719047D01*
X169561904Y-186671428D01*
X169657142Y-186623809D01*
X169704761Y-186576190D01*
X169752380Y-186480952D01*
X169752380Y-186385714D01*
X169704761Y-186290476D01*
X169657142Y-186242857D01*
X169561904Y-186195238D01*
X169371428Y-186147619D01*
X169133333Y-186147619D01*
X168942857Y-186195238D01*
X168847619Y-186242857D01*
X168800000Y-186290476D01*
X168752380Y-186385714D01*
X169657142Y-187147619D02*
X169704761Y-187195238D01*
X169752380Y-187147619D01*
X169704761Y-187100000D01*
X169657142Y-187147619D01*
X169752380Y-187147619D01*
X169752380Y-188147619D02*
X169752380Y-187576190D01*
X169752380Y-187861904D02*
X168752380Y-187861904D01*
X168895238Y-187766666D01*
X168990476Y-187671428D01*
X169038095Y-187576190D01*
X169085714Y-189004761D02*
X169752380Y-189004761D01*
X169085714Y-188576190D02*
X169609523Y-188576190D01*
X169704761Y-188623809D01*
X169752380Y-188719047D01*
X169752380Y-188861904D01*
X169704761Y-188957142D01*
X169657142Y-189004761D01*
G04 #@! TO.C,C5*
X177410714Y-186623809D02*
X178077380Y-186623809D01*
X177029761Y-186385714D02*
X177744047Y-186147619D01*
X177744047Y-186766666D01*
X177982142Y-187147619D02*
X178029761Y-187195238D01*
X178077380Y-187147619D01*
X178029761Y-187100000D01*
X177982142Y-187147619D01*
X178077380Y-187147619D01*
X177077380Y-187528571D02*
X177077380Y-188195238D01*
X178077380Y-187766666D01*
X177410714Y-189004761D02*
X178077380Y-189004761D01*
X177410714Y-188576190D02*
X177934523Y-188576190D01*
X178029761Y-188623809D01*
X178077380Y-188719047D01*
X178077380Y-188861904D01*
X178029761Y-188957142D01*
X177982142Y-189004761D01*
G04 #@! TO.C,C6*
X160714285Y-172647619D02*
X160666666Y-172600000D01*
X160571428Y-172552380D01*
X160333333Y-172552380D01*
X160238095Y-172600000D01*
X160190476Y-172647619D01*
X160142857Y-172742857D01*
X160142857Y-172838095D01*
X160190476Y-172980952D01*
X160761904Y-173552380D01*
X160142857Y-173552380D01*
X159761904Y-172647619D02*
X159714285Y-172600000D01*
X159619047Y-172552380D01*
X159380952Y-172552380D01*
X159285714Y-172600000D01*
X159238095Y-172647619D01*
X159190476Y-172742857D01*
X159190476Y-172838095D01*
X159238095Y-172980952D01*
X159809523Y-173552380D01*
X159190476Y-173552380D01*
X158761904Y-172885714D02*
X158761904Y-173885714D01*
X158761904Y-172933333D02*
X158666666Y-172885714D01*
X158476190Y-172885714D01*
X158380952Y-172933333D01*
X158333333Y-172980952D01*
X158285714Y-173076190D01*
X158285714Y-173361904D01*
X158333333Y-173457142D01*
X158380952Y-173504761D01*
X158476190Y-173552380D01*
X158666666Y-173552380D01*
X158761904Y-173504761D01*
G04 #@! TO.C,C7*
X160764285Y-183647619D02*
X160716666Y-183600000D01*
X160621428Y-183552380D01*
X160383333Y-183552380D01*
X160288095Y-183600000D01*
X160240476Y-183647619D01*
X160192857Y-183742857D01*
X160192857Y-183838095D01*
X160240476Y-183980952D01*
X160811904Y-184552380D01*
X160192857Y-184552380D01*
X159811904Y-183647619D02*
X159764285Y-183600000D01*
X159669047Y-183552380D01*
X159430952Y-183552380D01*
X159335714Y-183600000D01*
X159288095Y-183647619D01*
X159240476Y-183742857D01*
X159240476Y-183838095D01*
X159288095Y-183980952D01*
X159859523Y-184552380D01*
X159240476Y-184552380D01*
X158811904Y-183885714D02*
X158811904Y-184885714D01*
X158811904Y-183933333D02*
X158716666Y-183885714D01*
X158526190Y-183885714D01*
X158430952Y-183933333D01*
X158383333Y-183980952D01*
X158335714Y-184076190D01*
X158335714Y-184361904D01*
X158383333Y-184457142D01*
X158430952Y-184504761D01*
X158526190Y-184552380D01*
X158716666Y-184552380D01*
X158811904Y-184504761D01*
G04 #@! TO.C,C8*
X173477380Y-187458333D02*
X173477380Y-186886904D01*
X173477380Y-187172619D02*
X172477380Y-187172619D01*
X172620238Y-187077380D01*
X172715476Y-186982142D01*
X172763095Y-186886904D01*
X172810714Y-188315476D02*
X173477380Y-188315476D01*
X172810714Y-187886904D02*
X173334523Y-187886904D01*
X173429761Y-187934523D01*
X173477380Y-188029761D01*
X173477380Y-188172619D01*
X173429761Y-188267857D01*
X173382142Y-188315476D01*
G04 #@! TO.C,X1*
X156802381Y-176935714D02*
X156802381Y-176364285D01*
X156802381Y-176650000D02*
X155802381Y-176650000D01*
X155945239Y-176554761D01*
X156040477Y-176459523D01*
X156088096Y-176364285D01*
X155802381Y-177792857D02*
X155802381Y-177602380D01*
X155850001Y-177507142D01*
X155897620Y-177459523D01*
X156040477Y-177364285D01*
X156230953Y-177316666D01*
X156611905Y-177316666D01*
X156707143Y-177364285D01*
X156754762Y-177411904D01*
X156802381Y-177507142D01*
X156802381Y-177697619D01*
X156754762Y-177792857D01*
X156707143Y-177840476D01*
X156611905Y-177888095D01*
X156373810Y-177888095D01*
X156278572Y-177840476D01*
X156230953Y-177792857D01*
X156183334Y-177697619D01*
X156183334Y-177507142D01*
X156230953Y-177411904D01*
X156278572Y-177364285D01*
X156373810Y-177316666D01*
X156802381Y-178316666D02*
X156135715Y-178316666D01*
X156230953Y-178316666D02*
X156183334Y-178364285D01*
X156135715Y-178459523D01*
X156135715Y-178602380D01*
X156183334Y-178697619D01*
X156278572Y-178745238D01*
X156802381Y-178745238D01*
X156278572Y-178745238D02*
X156183334Y-178792857D01*
X156135715Y-178888095D01*
X156135715Y-179030952D01*
X156183334Y-179126190D01*
X156278572Y-179173809D01*
X156802381Y-179173809D01*
X156802381Y-179650000D02*
X155802381Y-179650000D01*
X156802381Y-180078571D02*
X156278572Y-180078571D01*
X156183334Y-180030952D01*
X156135715Y-179935714D01*
X156135715Y-179792857D01*
X156183334Y-179697619D01*
X156230953Y-179650000D01*
X156135715Y-180459523D02*
X156135715Y-180983333D01*
X156802381Y-180459523D01*
X156802381Y-180983333D01*
G04 #@! TD*
M02*
